<svg width="500" height="500" viewBox="0 0 500 500" fill="none" xmlns="http://www.w3.org/2000/svg">
<ellipse cx="250" cy="421.5" rx="193" ry="26.5" fill="#D3D3D3"/>
<path d="M404.514 334.015V391.515C391.847 394.682 366.114 400.615 364.514 399.015C362.914 397.415 241.847 241.682 181.514 164.015L207.014 160.515C210.514 149.515 218.014 133.515 242.014 126.015C261.214 120.015 267.014 133.182 267.514 140.515V180.515H298.014C317.614 182.515 325.181 199.682 326.514 208.015V251.015H346.514C359.314 253.415 365.181 266.682 366.514 273.015V322.015H390.014C400.414 322.015 404.014 330.015 404.514 334.015Z" fill="#776F4F"/>
<path d="M143.514 203.015V133.515V131.515H115.014C89.8139 125.115 95.5139 105.182 101.514 96.0149L143.514 60.0149C154.714 54.0149 164.181 52.8482 167.514 53.0149C199.514 55.8149 207.181 81.1815 207.014 93.5149V180.515C229.514 181.848 280.214 197.515 303.014 249.515C331.514 314.515 399.014 387.627 404.514 391.515C414.914 399.515 427.847 405.182 433.014 407.015C441.014 411.815 436.347 415.348 433.014 416.515H356.514L238.014 344.515L152.014 219.015L143.514 203.015Z" fill="#8CAE65"/>
<path d="M92.0139 203.015H143.514C167.181 200.515 222.214 210.615 253.014 271.015C283.814 331.415 335.006 393.182 356.752 416.515C307.577 413.45 258.564 384.927 238.514 369.515V396.015C235.714 412.015 224.014 416.348 218.514 416.515H133.014C126.181 415.348 112.514 409.115 112.514 393.515C112.514 377.915 126.181 371.015 133.014 369.515H191.014V322.015C172.614 306.815 156.014 257.682 150.014 235.015H80.5139C74.1139 235.015 72.8472 228.682 73.0139 225.515C73.0139 212.315 85.6805 205.015 92.0139 203.015Z" fill="#80995F"/>
<circle cx="167.514" cy="83.5149" r="8.5" fill="#4C443B"/>
</svg>
