<svg width="500" height="500" viewBox="0 0 500 500" fill="none" xmlns="http://www.w3.org/2000/svg">
<path d="M399.514 404.015V461.515C386.847 464.682 361.114 470.615 359.514 469.015C357.914 467.415 236.847 311.682 176.514 234.015L202.014 230.515C205.514 219.515 213.014 203.515 237.014 196.015C256.214 190.015 262.014 203.182 262.514 210.515V250.515H293.014C312.614 252.515 320.181 269.682 321.514 278.015V321.015H341.514C354.314 323.415 360.181 336.682 361.514 343.015V392.015H385.014C395.414 392.015 399.014 400.015 399.514 404.015Z" fill="#776F4F"/>
<path d="M138.514 273.015V203.515V201.515H110.014C84.8139 195.115 90.5139 175.182 96.5139 166.015L138.514 130.015C149.714 124.015 159.181 122.848 162.514 123.015C194.514 125.815 202.181 151.182 202.014 163.515V250.515C224.514 251.848 275.214 267.515 298.014 319.515C326.514 384.515 394.014 457.627 399.514 461.515C409.914 469.515 422.847 475.182 428.014 477.015C436.014 481.815 431.347 485.348 428.014 486.515H351.514L233.014 414.515L147.014 289.015L138.514 273.015Z" fill="#ABAAEC"/>
<path d="M87.0139 273.015H138.514C162.181 270.515 217.214 280.615 248.014 341.015C278.814 401.415 330.006 463.182 351.752 486.515C302.577 483.45 253.564 454.927 233.514 439.515V466.015C230.714 482.015 219.014 486.348 213.514 486.515H128.014C121.181 485.348 107.514 479.115 107.514 463.515C107.514 447.915 121.181 441.015 128.014 439.515H186.014V392.015C167.614 376.815 151.014 327.682 145.014 305.015H75.5139C69.1139 305.015 67.8472 298.682 68.0139 295.515C68.0139 282.315 80.6805 275.015 87.0139 273.015Z" fill="#5F6599"/>
<circle cx="162.514" cy="153.515" r="8.5" fill="#4C443B"/>
</svg>
