<svg width="500" height="500" viewBox="0 0 500 500" fill="none" xmlns="http://www.w3.org/2000/svg">
<path d="M399.514 292.015V349.515C386.847 352.682 361.114 358.615 359.514 357.015C357.914 355.415 236.847 199.682 176.514 122.015L202.014 118.515C205.514 107.515 213.014 91.5149 237.014 84.0149C256.214 78.0149 262.014 91.1815 262.514 98.5149V138.515H293.014C312.614 140.515 320.181 157.682 321.514 166.015V209.015H341.514C354.314 211.415 360.181 224.682 361.514 231.015V280.015H385.014C395.414 280.015 399.014 288.015 399.514 292.015Z" fill="#776F4F"/>
<path d="M138.514 161.015V91.5149V89.5149H110.014C84.8139 83.1149 90.5139 63.1815 96.5139 54.0149L138.514 18.0149C149.714 12.0149 159.181 10.8482 162.514 11.0149C194.514 13.8149 202.181 39.1815 202.014 51.5149V138.515C224.514 139.848 275.214 155.515 298.014 207.515C326.514 272.515 394.014 345.627 399.514 349.515C409.914 357.515 422.847 363.182 428.014 365.015C436.014 369.815 431.347 373.348 428.014 374.515H351.514L233.014 302.515L147.014 177.015L138.514 161.015Z" fill="#ABAAEC"/>
<path d="M87.0139 161.015H138.514C162.181 158.515 217.214 168.615 248.014 229.015C278.814 289.415 330.006 351.182 351.752 374.515C302.577 371.45 253.564 342.927 233.514 327.515L235.5 370.5C232.7 386.5 215.5 391 215.5 391C215.5 391 143.333 432.167 136.5 431C129.667 429.833 116 423.6 116 408C116 392.4 136.5 384 136.5 384L188 344L186.014 280.015C167.614 264.815 151.014 215.682 145.014 193.015H75.5139C69.1139 193.015 67.8472 186.682 68.0139 183.515C68.0139 170.315 80.6805 163.015 87.0139 161.015Z" fill="#5F6599"/>
<circle cx="162.514" cy="41.5149" r="8.5" fill="#4C443B"/>
</svg>
