<svg width="500" height="500" viewBox="0 0 500 500" fill="none" xmlns="http://www.w3.org/2000/svg">
<ellipse cx="250" cy="460.5" rx="193" ry="26.5" fill="#D3D3D3"/>
<path d="M399.514 295.015V352.515C386.847 355.682 361.114 361.615 359.514 360.015C357.914 358.415 236.847 202.682 176.514 125.015L202.014 121.515C205.514 110.515 213.014 94.5149 237.014 87.0149C256.214 81.0149 262.014 94.1815 262.514 101.515V141.515H293.014C312.614 143.515 320.181 160.682 321.514 169.015V212.015H341.514C354.314 214.415 360.181 227.682 361.514 234.015V283.015H385.014C395.414 283.015 399.014 291.015 399.514 295.015Z" fill="#776F4F"/>
<path d="M138.514 164.015V94.5149V92.5149H110.014C84.8139 86.1149 90.5139 66.1815 96.5139 57.0149L138.514 21.0149C149.714 15.0149 159.181 13.8482 162.514 14.0149C194.514 16.8149 202.181 42.1815 202.014 54.5149V141.515C224.514 142.848 275.214 158.515 298.014 210.515C326.514 275.515 394.014 348.627 399.514 352.515C409.914 360.515 422.847 366.182 428.014 368.015C436.014 372.815 431.347 376.348 428.014 377.515H351.514L233.014 305.515L147.014 180.015L138.514 164.015Z" fill="#8CAE65"/>
<path d="M87.0139 164.015H138.514C162.181 161.515 217.214 171.615 248.014 232.015C278.814 292.415 330.006 354.182 351.752 377.515C302.577 374.45 253.564 345.927 233.514 330.515L235.5 373.5C232.7 389.5 215.5 394 215.5 394C215.5 394 143.333 435.167 136.5 434C129.667 432.833 116 426.6 116 411C116 395.4 136.5 387 136.5 387L188 347L186.014 283.015C167.614 267.815 151.014 218.682 145.014 196.015H75.5139C69.1139 196.015 67.8472 189.682 68.0139 186.515C68.0139 173.315 80.6805 166.015 87.0139 164.015Z" fill="#80995F"/>
<circle cx="162.514" cy="44.5149" r="8.5" fill="#4C443B"/>
</svg>
