<svg width="500" height="500" viewBox="0 0 500 500" fill="none" xmlns="http://www.w3.org/2000/svg">
<ellipse cx="250" cy="421.515" rx="193" ry="26.5" fill="#D3D3D3"/>
<path d="M404.514 334.03V391.53C391.847 394.696 366.114 400.63 364.514 399.03C362.914 397.43 241.847 241.696 181.514 164.03L207.014 160.53C210.514 149.53 218.014 133.53 242.014 126.03C261.214 120.03 267.014 133.196 267.514 140.53V180.53H298.014C317.614 182.53 325.181 199.696 326.514 208.03V251.03H346.514C359.314 253.43 365.181 266.696 366.514 273.03V322.03H390.014C400.414 322.03 404.014 330.03 404.514 334.03Z" fill="#776F4F"/>
<path d="M143.514 203.03L177 131.515V129.515H148.5C123.3 123.115 129 103.182 135 94.0149L177 58.0149C188.2 52.0149 197.667 50.8482 201 51.0149C233 53.8149 240.667 79.1815 240.5 91.5149L207.014 180.53C229.514 181.863 280.214 197.53 303.014 249.53C331.514 314.53 399.014 387.642 404.514 391.53C414.914 399.53 427.847 405.196 433.014 407.03C441.014 411.83 436.347 415.363 433.014 416.53H356.514L238.014 344.53L152.014 219.03L143.514 203.03Z" fill="#8CAE65"/>
<path d="M99 163.515L143.514 203.03C167.181 200.53 222.214 210.63 253.014 271.03C283.814 331.43 335.006 393.196 356.753 416.53C307.577 413.464 258.564 384.942 238.514 369.53V396.03C235.714 412.03 224.014 416.363 218.514 416.53H133.014C126.181 415.363 112.514 409.13 112.514 393.53C112.514 377.93 126.181 371.03 133.014 369.53H191.014V322.03C172.614 306.83 156.014 257.696 150.014 235.03C134.391 235.03 109.991 212.081 96.432 201.161L87.5 195.515C81.1 195.515 71.8333 187.182 72 184.015C72 170.815 92.6667 165.515 99 163.515Z" fill="#80995F"/>
<circle cx="199.5" cy="83.5149" r="8.5" fill="#4C443B"/>
</svg>
