<svg width="500" height="500" viewBox="0 0 500 500" fill="none" xmlns="http://www.w3.org/2000/svg">
<path d="M399.516 404.03V461.53C386.849 464.696 361.116 470.63 359.516 469.03C357.916 467.43 236.849 311.696 176.516 234.03L202.016 230.53C205.516 219.53 213.016 203.53 237.016 196.03C256.216 190.03 262.016 203.196 262.516 210.53V250.53H293.016C312.616 252.53 320.183 269.696 321.516 278.03V321.03H341.516C354.316 323.43 360.183 336.696 361.516 343.03V392.03H385.016C395.416 392.03 399.016 400.03 399.516 404.03Z" fill="#776F4F"/>
<path d="M138.516 273.03L172.002 201.515V199.515H143.502C118.302 193.115 124.002 173.182 130.002 164.015L172.002 128.015C183.202 122.015 192.669 120.848 196.002 121.015C228.002 123.815 235.669 149.182 235.502 161.515L202.016 250.53C224.516 251.863 275.216 267.53 298.016 319.53C326.516 384.53 394.016 457.642 399.516 461.53C409.916 469.53 422.849 475.196 428.016 477.03C436.016 481.83 431.349 485.363 428.016 486.53H351.516L233.016 414.53L147.016 289.03L138.516 273.03Z" fill="#ABAAEC"/>
<path d="M94.0023 233.515L138.516 273.03C162.183 270.53 217.216 280.63 248.016 341.03C278.816 401.43 330.009 463.196 351.755 486.53C302.579 483.464 253.567 454.942 233.516 439.53V466.03C230.716 482.03 219.016 486.363 213.516 486.53H128.016C121.183 485.363 107.516 479.13 107.516 463.53C107.516 447.93 121.183 441.03 128.016 439.53H186.016V392.03C167.616 376.83 151.016 327.696 145.016 305.03C129.393 305.03 104.993 282.081 91.4343 271.161L82.5023 265.515C76.1023 265.515 66.8356 257.182 67.0022 254.015C67.0022 240.815 87.669 235.515 94.0023 233.515Z" fill="#5F6599"/>
<circle cx="194.502" cy="153.515" r="8.5" fill="#4C443B"/>
</svg>
