<svg width="500" height="500" viewBox="0 0 500 500" fill="none" xmlns="http://www.w3.org/2000/svg">
<path d="M422.528 404.03V461.53C409.861 464.696 384.128 470.63 382.528 469.03C380.928 467.43 259.861 311.696 199.528 234.03L225.028 230.53C228.528 219.53 236.028 203.53 260.028 196.03C279.228 190.03 285.028 203.196 285.528 210.53V250.53H316.028C335.628 252.53 343.195 269.696 344.528 278.03V321.03H364.528C377.328 323.43 383.195 336.696 384.528 343.03V392.03H408.028C418.428 392.03 422.028 400.03 422.528 404.03Z" fill="#776F4F"/>
<path d="M161.528 273.03L134.014 214.515C134.014 214.515 119.846 221.634 110.014 223.515C99.0822 225.606 81.514 223.515 81.514 223.515C56.314 217.115 62.014 197.182 68.014 188.015L110.014 152.015C121.214 146.015 130.681 144.848 134.014 145.015C166.014 147.815 173.681 173.182 173.514 185.515L225.028 250.53C247.528 251.863 298.228 267.53 321.028 319.53C349.528 384.53 417.028 457.642 422.528 461.53C432.928 469.53 445.861 475.196 451.028 477.03C459.028 481.83 454.361 485.363 451.028 486.53H374.528L256.028 414.53L170.028 289.03L161.528 273.03Z" fill="#ABAAEC"/>
<path d="M63.0139 273.03H161.528C185.194 270.53 240.228 280.63 271.028 341.03C301.828 401.43 353.02 463.196 374.767 486.53C325.591 483.464 276.578 454.942 256.528 439.53V466.03C253.728 482.03 242.028 486.363 236.528 486.53H151.028C144.194 485.363 130.528 479.13 130.528 463.53C130.528 447.93 144.194 441.03 151.028 439.53H209.028V392.03C190.628 376.83 174.028 327.696 168.028 305.03H51.5139C45.1139 305.03 43.8472 298.696 44.0139 295.53C44.0139 282.33 56.6806 275.03 63.0139 273.03Z" fill="#5F6599"/>
<circle cx="131.514" cy="178.515" r="8.5" fill="#4C443B"/>
</svg>
