<svg width="500" height="500" viewBox="0 0 500 500" fill="none" xmlns="http://www.w3.org/2000/svg">
<ellipse cx="265.014" cy="409.515" rx="193" ry="26.5" fill="#D3D3D3"/>
<path d="M419.528 322.03V379.53C406.861 382.696 381.128 388.63 379.528 387.03C377.928 385.43 256.861 229.696 196.528 152.03L222.028 148.53C225.528 137.53 233.028 121.53 257.028 114.03C276.228 108.03 282.028 121.196 282.528 128.53V168.53H313.028C332.628 170.53 340.195 187.696 341.528 196.03V239.03H361.528C374.328 241.43 380.195 254.696 381.528 261.03V310.03H405.028C415.428 310.03 419.028 318.03 419.528 322.03Z" fill="#776F4F"/>
<path d="M158.528 191.03L131.014 132.515C131.014 132.515 116.846 139.634 107.014 141.515C96.0822 143.606 78.514 141.515 78.514 141.515C53.314 135.115 59.014 115.182 65.014 106.015L107.014 70.0149C118.214 64.0149 127.681 62.8482 131.014 63.0149C163.014 65.8149 170.681 91.1815 170.514 103.515L222.028 168.53C244.528 169.863 295.228 185.53 318.028 237.53C346.528 302.53 414.028 375.642 419.528 379.53C429.928 387.53 442.861 393.196 448.028 395.03C456.028 399.83 451.361 403.363 448.028 404.53H371.528L253.028 332.53L167.028 207.03L158.528 191.03Z" fill="#8CAE65"/>
<path d="M60.0139 191.03H158.528C182.194 188.53 237.228 198.63 268.028 259.03C298.828 319.43 350.02 381.196 371.767 404.53C322.591 401.464 273.578 372.942 253.528 357.53V384.03C250.728 400.03 239.028 404.363 233.528 404.53H148.028C141.194 403.363 127.528 397.13 127.528 381.53C127.528 365.93 141.194 359.03 148.028 357.53H206.028V310.03C187.628 294.83 171.028 245.696 165.028 223.03H48.5139C42.1139 223.03 40.8472 216.696 41.0139 213.53C41.0139 200.33 53.6806 193.03 60.0139 191.03Z" fill="#80995F"/>
<circle cx="128.514" cy="96.5149" r="8.5" fill="#4C443B"/>
</svg>
