<svg width="500" height="500" viewBox="0 0 500 500" fill="none" xmlns="http://www.w3.org/2000/svg">
<path d="M100.917 403.015V460.515C113.584 463.682 139.317 469.615 140.917 468.015C142.517 466.415 263.584 310.682 323.917 233.015L298.417 229.515C294.917 218.515 287.417 202.515 263.417 195.015C244.217 189.015 238.417 202.182 237.917 209.515V249.515H207.417C187.817 251.515 180.251 268.682 178.917 277.015V320.015H158.917C146.117 322.415 140.251 335.682 138.917 342.015V391.015H115.417C105.017 391.015 101.417 399.015 100.917 403.015Z" fill="#776F4F"/>
<path d="M361.917 272.015V202.515V200.515H390.417C415.617 194.115 409.917 174.182 403.917 165.015L361.917 129.015C350.717 123.015 341.251 121.848 337.917 122.015C305.917 124.815 298.251 150.182 298.417 162.515V249.515C275.917 250.848 225.217 266.515 202.417 318.515C173.917 383.515 106.417 456.627 100.917 460.515C90.5172 468.515 77.5839 474.182 72.4172 476.015C64.4172 480.815 69.0839 484.348 72.4172 485.515H148.917L267.417 413.515L353.417 288.015L361.917 272.015Z" fill="#ABAAEC"/>
<path d="M413.417 272.015H361.917C338.251 269.515 283.217 279.615 252.417 340.015C221.617 400.415 170.425 462.182 148.679 485.515C197.854 482.45 246.867 453.927 266.917 438.515V465.015C269.717 481.015 281.417 485.348 286.917 485.515H372.417C379.251 484.348 392.917 478.115 392.917 462.515C392.917 446.915 379.251 440.015 372.417 438.515H314.417V391.015C332.817 375.815 349.417 326.682 355.417 304.015H424.917C431.317 304.015 432.584 297.682 432.417 294.515C432.417 281.315 419.751 274.015 413.417 272.015Z" fill="#5F6599"/>
<circle cx="8.5" cy="8.5" r="8.5" transform="matrix(-1 0 0 1 346.417 144.015)" fill="#4C443B"/>
</svg>
