<svg width="500" height="500" viewBox="0 0 500 500" fill="none" xmlns="http://www.w3.org/2000/svg">
<ellipse cx="193" cy="26.5" rx="193" ry="26.5" transform="matrix(-1 0 0 1 443 394)" fill="#D3D3D3"/>
<path d="M95.4861 333.015V390.515C108.153 393.682 133.886 399.615 135.486 398.015C137.086 396.415 258.153 240.682 318.486 163.015L292.986 159.515C289.486 148.515 281.986 132.515 257.986 125.015C238.786 119.015 232.986 132.182 232.486 139.515V179.515H201.986C182.386 181.515 174.819 198.682 173.486 207.015V250.015H153.486C140.686 252.415 134.819 265.682 133.486 272.015V321.015H109.986C99.5861 321.015 95.9861 329.015 95.4861 333.015Z" fill="#776F4F"/>
<path d="M356.486 202.015V132.515V130.515H384.986C410.186 124.115 404.486 104.182 398.486 95.0149L356.486 59.0149C345.286 53.0149 335.819 51.8482 332.486 52.0149C300.486 54.8149 292.819 80.1815 292.986 92.5149V179.515C270.486 180.848 219.786 196.515 196.986 248.515C168.486 313.515 100.986 386.627 95.4861 390.515C85.0861 398.515 72.1528 404.182 66.9861 406.015C58.9861 410.815 63.6528 414.348 66.9861 415.515H143.486L261.986 343.515L347.986 218.015L356.486 202.015Z" fill="#8CAE65"/>
<path d="M407.986 202.015H356.486C332.819 199.515 277.786 209.615 246.986 270.015C216.186 330.415 164.994 392.182 143.248 415.515C192.423 412.45 241.436 383.927 261.486 368.515V395.015C264.286 411.015 275.986 415.348 281.486 415.515H366.986C373.819 414.348 387.486 408.115 387.486 392.515C387.486 376.915 373.819 370.015 366.986 368.515H308.986V321.015C327.386 305.815 343.986 256.682 349.986 234.015H419.486C425.886 234.015 427.153 227.682 426.986 224.515C426.986 211.315 414.319 204.015 407.986 202.015Z" fill="#80995F"/>
<circle cx="8.5" cy="8.5" r="8.5" transform="matrix(-1 0 0 1 340.986 74.0149)" fill="#4C443B"/>
</svg>
