<svg width="500" height="500" viewBox="0 0 500 500" fill="none" xmlns="http://www.w3.org/2000/svg">
<ellipse cx="193" cy="26.5" rx="193" ry="26.5" transform="matrix(-1 0 0 1 443 433)" fill="#D3D3D3"/>
<path d="M100.486 294.015V351.515C113.153 354.682 138.886 360.615 140.486 359.015C142.086 357.415 263.153 201.682 323.486 124.015L297.986 120.515C294.486 109.515 286.986 93.5149 262.986 86.0149C243.786 80.0149 237.986 93.1815 237.486 100.515V140.515H206.986C187.386 142.515 179.819 159.682 178.486 168.015V211.015H158.486C145.686 213.415 139.819 226.682 138.486 233.015V282.015H114.986C104.586 282.015 100.986 290.015 100.486 294.015Z" fill="#776F4F"/>
<path d="M361.486 163.015V93.5149V91.5149H389.986C415.186 85.1149 409.486 65.1815 403.486 56.0149L361.486 20.0149C350.286 14.0149 340.819 12.8482 337.486 13.0149C305.486 15.8149 297.819 41.1815 297.986 53.5149V140.515C275.486 141.848 224.786 157.515 201.986 209.515C173.486 274.515 105.986 347.627 100.486 351.515C90.0861 359.515 77.1528 365.182 71.9861 367.015C63.9861 371.815 68.6528 375.348 71.9861 376.515H148.486L266.986 304.515L352.986 179.015L361.486 163.015Z" fill="#8CAE65"/>
<path d="M412.986 163.015H361.486C337.819 160.515 282.786 170.615 251.986 231.015C221.186 291.415 169.994 353.182 148.248 376.515C197.423 373.45 246.436 344.927 266.486 329.515L264.5 372.5C267.3 388.5 284.5 393 284.5 393C284.5 393 356.667 434.167 363.5 433C370.333 431.833 384 425.6 384 410C384 394.4 363.5 386 363.5 386L312 346L313.986 282.015C332.386 266.815 348.986 217.682 354.986 195.015H424.486C430.886 195.015 432.153 188.682 431.986 185.515C431.986 172.315 419.319 165.015 412.986 163.015Z" fill="#80995F"/>
<circle cx="8.5" cy="8.5" r="8.5" transform="matrix(-1 0 0 1 345.986 35.0149)" fill="#4C443B"/>
</svg>
