<svg width="500" height="500" viewBox="0 0 500 500" fill="none" xmlns="http://www.w3.org/2000/svg">
<path d="M100.917 281.015V338.515C113.584 341.682 139.317 347.615 140.917 346.015C142.517 344.415 263.584 188.682 323.917 111.015L298.417 107.515C294.917 96.5149 287.417 80.5149 263.417 73.0149C244.217 67.0149 238.417 80.1815 237.917 87.5149V127.515H207.417C187.817 129.515 180.251 146.682 178.917 155.015V198.015H158.917C146.117 200.415 140.251 213.682 138.917 220.015V269.015H115.417C105.017 269.015 101.417 277.015 100.917 281.015Z" fill="#776F4F"/>
<path d="M361.917 150.015V80.5149V78.5149H390.417C415.617 72.1149 409.917 52.1815 403.917 43.0149L361.917 7.01486C350.717 1.01486 341.251 -0.151806 337.917 0.0148611C305.917 2.81486 298.251 28.1815 298.417 40.5149V127.515C275.917 128.848 225.217 144.515 202.417 196.515C173.917 261.515 106.417 334.627 100.917 338.515C90.5172 346.515 77.5839 352.182 72.4172 354.015C64.4172 358.815 69.0839 362.348 72.4172 363.515H148.917L267.417 291.515L353.417 166.015L361.917 150.015Z" fill="#ABAAEC"/>
<path d="M413.417 150.015H361.917C338.251 147.515 283.217 157.615 252.417 218.015C221.617 278.415 170.425 340.182 148.679 363.515C197.854 360.45 246.867 331.927 266.917 316.515L264.931 359.5C267.731 375.5 284.931 380 284.931 380C284.931 380 357.098 421.167 363.931 420C370.764 418.833 384.431 412.6 384.431 397C384.431 381.4 363.931 373 363.931 373L312.431 333L314.417 269.015C332.817 253.815 349.417 204.682 355.417 182.015H424.917C431.317 182.015 432.584 175.682 432.417 172.515C432.417 159.315 419.751 152.015 413.417 150.015Z" fill="#5F6599"/>
<circle cx="8.5" cy="8.5" r="8.5" transform="matrix(-1 0 0 1 346.417 22.0149)" fill="#4C443B"/>
</svg>
