<svg width="500" height="500" viewBox="0 0 500 500" fill="none" xmlns="http://www.w3.org/2000/svg">
<path d="M99.9172 407.03V464.53C112.584 467.696 138.317 473.63 139.917 472.03C141.517 470.43 262.584 314.696 322.917 237.03L297.417 233.53C293.917 222.53 286.417 206.53 262.417 199.03C243.217 193.03 237.417 206.196 236.917 213.53V253.53H206.417C186.817 255.53 179.251 272.696 177.917 281.03V324.03H157.917C145.117 326.43 139.251 339.696 137.917 346.03V395.03H114.417C104.017 395.03 100.417 403.03 99.9172 407.03Z" fill="#776F4F"/>
<path d="M360.917 276.03L327.431 204.515V202.515H355.931C381.131 196.115 375.431 176.182 369.431 167.015L327.431 131.015C316.231 125.015 306.764 123.848 303.431 124.015C271.431 126.815 263.764 152.182 263.931 164.515L297.417 253.53C274.917 254.863 224.217 270.53 201.417 322.53C172.917 387.53 105.417 460.642 99.9173 464.53C89.5173 472.53 76.5839 478.196 71.4173 480.03C63.4173 484.83 68.0839 488.363 71.4173 489.53H147.917L266.417 417.53L352.417 292.03L360.917 276.03Z" fill="#ABAAEC"/>
<path d="M405.431 236.515L360.917 276.03C337.251 273.53 282.217 283.63 251.417 344.03C220.617 404.43 169.425 466.196 147.679 489.53C196.854 486.464 245.867 457.942 265.917 442.53V469.03C268.717 485.03 280.417 489.363 285.917 489.53H371.417C378.251 488.363 391.917 482.13 391.917 466.53C391.917 450.93 378.251 444.03 371.417 442.53H313.417V395.03C331.817 379.83 348.417 330.696 354.417 308.03C370.04 308.03 394.44 285.081 407.999 274.161L416.931 268.515C423.331 268.515 432.598 260.182 432.431 257.015C432.431 243.815 411.764 238.515 405.431 236.515Z" fill="#5F6599"/>
<circle cx="8.5" cy="8.5" r="8.5" transform="matrix(-1 0 0 1 313.431 148.015)" fill="#4C443B"/>
</svg>
