<svg width="500" height="500" viewBox="0 0 500 500" fill="none" xmlns="http://www.w3.org/2000/svg">
<ellipse cx="193" cy="26.5" rx="193" ry="26.5" transform="matrix(-1 0 0 1 443 395.015)" fill="#D3D3D3"/>
<path d="M95.4861 334.03V391.53C108.153 394.696 133.886 400.63 135.486 399.03C137.086 397.43 258.153 241.696 318.486 164.03L292.986 160.53C289.486 149.53 281.986 133.53 257.986 126.03C238.786 120.03 232.986 133.196 232.486 140.53V180.53H201.986C182.386 182.53 174.819 199.696 173.486 208.03V251.03H153.486C140.686 253.43 134.819 266.696 133.486 273.03V322.03H109.986C99.5861 322.03 95.9861 330.03 95.4861 334.03Z" fill="#776F4F"/>
<path d="M356.486 203.03L323 131.515V129.515H351.5C376.7 123.115 371 103.182 365 94.0149L323 58.0149C311.8 52.0149 302.333 50.8482 299 51.0149C267 53.8149 259.333 79.1815 259.5 91.5149L292.986 180.53C270.486 181.863 219.786 197.53 196.986 249.53C168.486 314.53 100.986 387.642 95.4861 391.53C85.0861 399.53 72.1528 405.196 66.9861 407.03C58.9861 411.83 63.6528 415.363 66.9861 416.53H143.486L261.986 344.53L347.986 219.03L356.486 203.03Z" fill="#8CAE65"/>
<path d="M401 163.515L356.486 203.03C332.819 200.53 277.786 210.63 246.986 271.03C216.186 331.43 164.994 393.196 143.247 416.53C192.423 413.464 241.436 384.942 261.486 369.53V396.03C264.286 412.03 275.986 416.363 281.486 416.53H366.986C373.819 415.363 387.486 409.13 387.486 393.53C387.486 377.93 373.819 371.03 366.986 369.53H308.986V322.03C327.386 306.83 343.986 257.696 349.986 235.03C365.609 235.03 390.009 212.081 403.568 201.161L412.5 195.515C418.9 195.515 428.167 187.182 428 184.015C428 170.815 407.333 165.515 401 163.515Z" fill="#80995F"/>
<circle cx="8.5" cy="8.5" r="8.5" transform="matrix(-1 0 0 1 309 75.0149)" fill="#4C443B"/>
</svg>
