<svg width="500" height="500" viewBox="0 0 500 500" fill="none" xmlns="http://www.w3.org/2000/svg">
<path d="M76.9169 400.03V457.53C89.5835 460.696 115.317 466.63 116.917 465.03C118.517 463.43 239.584 307.696 299.917 230.03L274.417 226.53C270.917 215.53 263.417 199.53 239.417 192.03C220.217 186.03 214.417 199.196 213.917 206.53V246.53H183.417C163.817 248.53 156.25 265.696 154.917 274.03V317.03H134.917C122.117 319.43 116.25 332.696 114.917 339.03V388.03H91.4169C81.0169 388.03 77.4169 396.03 76.9169 400.03Z" fill="#776F4F"/>
<path d="M337.917 269.03L365.431 210.515C365.431 210.515 379.599 217.634 389.431 219.515C400.363 221.606 417.931 219.515 417.931 219.515C443.131 213.115 437.431 193.182 431.431 184.015L389.431 148.015C378.231 142.015 368.764 140.848 365.431 141.015C333.431 143.815 325.764 169.182 325.931 181.515L274.417 246.53C251.917 247.863 201.217 263.53 178.417 315.53C149.917 380.53 82.4171 453.642 76.9171 457.53C66.5171 465.53 53.5838 471.196 48.4171 473.03C40.4171 477.83 45.0838 481.363 48.4171 482.53H124.917L243.417 410.53L329.417 285.03L337.917 269.03Z" fill="#ABAAEC"/>
<path d="M436.431 269.03H337.917C314.25 266.53 259.217 276.63 228.417 337.03C197.617 397.43 146.424 459.196 124.678 482.53C173.854 479.464 222.866 450.942 242.917 435.53V462.03C245.717 478.03 257.417 482.363 262.917 482.53H348.417C355.25 481.363 368.917 475.13 368.917 459.53C368.917 443.93 355.25 437.03 348.417 435.53H290.417V388.03C308.817 372.83 325.417 323.696 331.417 301.03H447.931C454.331 301.03 455.598 294.696 455.431 291.53C455.431 278.33 442.764 271.03 436.431 269.03Z" fill="#5F6599"/>
<circle cx="8.5" cy="8.5" r="8.5" transform="matrix(-1 0 0 1 376.431 166.015)" fill="#4C443B"/>
</svg>
