<svg width="500" height="500" viewBox="0 0 500 500" fill="none" xmlns="http://www.w3.org/2000/svg">
<ellipse cx="193" cy="26.5" rx="193" ry="26.5" transform="matrix(-1 0 0 1 427 383.015)" fill="#D3D3D3"/>
<path d="M79.4859 322.03V379.53C92.1525 382.696 117.886 388.63 119.486 387.03C121.086 385.43 242.153 229.696 302.486 152.03L276.986 148.53C273.486 137.53 265.986 121.53 241.986 114.03C222.786 108.03 216.986 121.196 216.486 128.53V168.53H185.986C166.386 170.53 158.819 187.696 157.486 196.03V239.03H137.486C124.686 241.43 118.819 254.696 117.486 261.03V310.03H93.9859C83.5859 310.03 79.9859 318.03 79.4859 322.03Z" fill="#776F4F"/>
<path d="M340.486 191.03L368 132.515C368 132.515 382.168 139.634 392 141.515C402.932 143.606 420.5 141.515 420.5 141.515C445.7 135.115 440 115.182 434 106.015L392 70.0149C380.8 64.0149 371.333 62.8482 368 63.0149C336 65.8149 328.333 91.1815 328.5 103.515L276.986 168.53C254.486 169.863 203.786 185.53 180.986 237.53C152.486 302.53 84.9862 375.642 79.4862 379.53C69.0862 387.53 56.1528 393.196 50.9862 395.03C42.9862 399.83 47.6528 403.363 50.9862 404.53H127.486L245.986 332.53L331.986 207.03L340.486 191.03Z" fill="#8CAE65"/>
<path d="M439 191.03H340.486C316.819 188.53 261.786 198.63 230.986 259.03C200.186 319.43 148.993 381.196 127.247 404.53C176.423 401.464 225.435 372.942 245.486 357.53V384.03C248.286 400.03 259.986 404.363 265.486 404.53H350.986C357.819 403.363 371.486 397.13 371.486 381.53C371.486 365.93 357.819 359.03 350.986 357.53H292.986V310.03C311.386 294.83 327.986 245.696 333.986 223.03H450.5C456.9 223.03 458.167 216.696 458 213.53C458 200.33 445.333 193.03 439 191.03Z" fill="#80995F"/>
<circle cx="8.5" cy="8.5" r="8.5" transform="matrix(-1 0 0 1 379 88.0149)" fill="#4C443B"/>
</svg>
