<svg width="500" height="500" viewBox="0 0 500 500" fill="none" xmlns="http://www.w3.org/2000/svg">
<path d="M344 152.5L324.5 172.5L394 250L412.5 223.5C405.7 189.5 364 162 344 152.5Z" fill="#21483F"/>
<g filter="url(#filter0_b_8_137)">
<circle cx="255.5" cy="312.5" r="162.5" fill="#2F675A"/>
</g>
<path d="M255.5 475C345.246 475 418 402.246 418 312.5C418 312.5 410.966 367.817 302.5 417.5C199 464.908 131.474 417.5 131.474 417.5C161.282 452.674 205.784 475 255.5 475Z" fill="#21483F"/>
<path d="M133.5 259.5C149 227.667 200.2 168 281 184C250.667 188 178.7 208.7 133.5 259.5Z" fill="#EDEDED"/>
<path d="M428.99 187.819C412.119 205.558 385.357 191.46 374.086 182.193C362.217 169.856 363.502 153.881 365.629 147.436C369.206 141.355 369.821 129.42 369.682 124.212C373.834 128.136 374.622 133.757 374.497 136.076C375.769 129.951 386.777 122.22 392.122 119.121C388.567 124.049 388.709 129.945 389.225 132.277C393.374 126.4 407.802 119.904 414.497 117.391C405.895 124.912 405.943 129.077 407.042 130.22C426.702 117.339 444.005 119.484 450.199 122.166C443.878 121.083 436.216 128.862 433.175 132.887C433.329 144.806 426.113 158.535 422.486 163.911C426.058 168.016 437.653 162.202 443.004 158.782C440.332 167.763 428.032 175.229 422.216 177.839C424.296 179.609 433.36 177.173 437.632 175.735C434.982 183.563 422.291 186.408 416.276 186.853C418.869 191.9 425.832 189.6 428.99 187.819Z" fill="#FF3434"/>
<defs>
<filter id="filter0_b_8_137" x="89" y="146" width="333" height="333" filterUnits="userSpaceOnUse" color-interpolation-filters="sRGB">
<feFlood flood-opacity="0" result="BackgroundImageFix"/>
<feGaussianBlur in="BackgroundImageFix" stdDeviation="2"/>
<feComposite in2="SourceAlpha" operator="in" result="effect1_backgroundBlur_8_137"/>
<feBlend mode="normal" in="SourceGraphic" in2="effect1_backgroundBlur_8_137" result="shape"/>
</filter>
</defs>
</svg>
