<svg width="500" height="500" viewBox="0 0 500 500" fill="none" xmlns="http://www.w3.org/2000/svg">
<path d="M378 167.5C408 124.5 373 103.5 344 98.0001C327.741 94.9165 300.638 103.149 273 111.771L262 89.3206C285.088 83.357 307.312 75.2496 323 68.5C335.833 63.1666 369.7 61.6 402.5 98.0001C435.3 134.4 412.5 174.5 397 190C380.667 196.833 354 201.9 378 167.5Z" fill="#858585"/>
<path d="M344 152.5L324.5 172.5L394 250L412.5 223.5C405.7 189.5 364 162 344 152.5Z" fill="#21483F"/>
<circle cx="255.5" cy="312.5" r="162.5" fill="#2F675A"/>
<path d="M255.5 475C345.246 475 418 402.246 418 312.5C418 312.5 410.966 367.817 302.5 417.5C199 464.908 131.474 417.5 131.474 417.5C161.282 452.674 205.784 475 255.5 475Z" fill="#21483F"/>
<path d="M272.752 42.0062C289.131 46.9466 273.637 85.8065 273.637 85.8065L279.028 111.108C279.028 111.108 306.375 136.645 295.316 147.714C283.585 159.455 261.325 122.202 261.325 122.202C261.325 122.202 272.582 161.676 255.709 168C237.217 174.932 249.626 117.798 249.626 117.798C249.626 117.798 209.079 154.587 202.22 135.982C195.78 118.515 238.53 105.095 238.53 105.095C238.53 105.095 192.45 104.666 196.736 87.4804C201.009 70.3483 241.835 90.6957 241.835 90.6957C241.835 90.6957 210.851 59.1641 225.249 49.49C239.876 39.6627 254.438 83.8999 254.438 83.8999C254.438 83.8999 255.657 36.85 272.752 42.0062Z" fill="#FFA235"/>
<path d="M267.576 61.1295C278.764 64.4809 268.098 91.118 268.098 91.118L271.735 108.432C271.735 108.432 290.38 125.865 282.799 133.465C274.757 141.526 259.612 116.062 259.612 116.062C259.612 116.062 267.232 143.068 255.685 147.431C243.031 152.212 251.623 113.069 251.623 113.069C251.623 113.069 223.835 138.335 219.182 125.61C214.813 113.662 244.062 104.392 244.062 104.392C244.062 104.392 212.563 104.186 215.526 92.4111C218.479 80.6725 246.349 94.5264 246.349 94.5264C246.349 94.5264 225.229 72.9958 235.09 66.3445C245.107 59.5877 254.977 89.8493 254.977 89.8493C254.977 89.8493 255.9 57.6317 267.576 61.1295Z" fill="#F52424"/>
<path d="M133.5 259.5C149 227.667 200.2 168 281 184C250.667 188 178.7 208.7 133.5 259.5Z" fill="#FFC37D"/>
</svg>
