<svg width="500" height="500" viewBox="0 0 500 500" fill="none" xmlns="http://www.w3.org/2000/svg">
<path d="M397 190C380.667 196.833 354 201.9 378 167.5C394.229 144.238 391.436 127.414 380.86 116L402.5 98C435.3 134.4 412.5 174.5 397 190Z" fill="#858585"/>
<path d="M344 152.5L324.5 172.5L394 250L412.5 223.5C405.7 189.5 364 162 344 152.5Z" fill="#21483F"/>
<g filter="url(#filter0_b_7_45)">
<circle cx="255.5" cy="312.5" r="162.5" fill="#2F675A"/>
</g>
<path d="M255.5 475C345.246 475 418 402.246 418 312.5C418 312.5 410.966 367.817 302.5 417.5C199 464.908 131.474 417.5 131.474 417.5C161.282 452.674 205.784 475 255.5 475Z" fill="#21483F"/>
<path d="M443.235 85.8886C447.051 102.566 405.616 108.339 405.616 108.339L386.3 125.548C386.3 125.548 377.648 161.95 362.556 157.82C346.548 153.439 367.897 115.657 367.897 115.657C367.897 115.657 339.171 144.978 325.324 133.448C310.148 120.811 365.933 103.312 365.933 103.312C365.933 103.312 313.897 86.2914 326.667 71.1225C338.656 56.8808 371.479 87.3829 371.479 87.3829C371.479 87.3829 349.041 47.132 366.095 42.3494C383.096 37.5816 385.626 83.127 385.626 83.127C385.626 83.127 397.686 40.5967 413.219 48.3186C428.998 56.1629 397.769 90.7131 397.769 90.7131C397.769 90.7131 439.253 68.4827 443.235 85.8886Z" fill="#921A00"/>
<path d="M424.058 90.858C426.683 102.238 398.259 106.156 398.259 106.156L385.015 117.886C385.015 117.886 379.097 142.716 368.741 139.891C357.756 136.894 372.385 111.129 372.385 111.129C372.385 111.129 352.691 131.118 343.185 123.245C332.767 114.617 371.031 102.706 371.031 102.706C371.031 102.706 335.322 91.0686 344.075 80.7264C352.294 71.0163 374.828 91.8418 374.828 91.8418C374.828 91.8418 359.414 64.3707 371.112 61.1163C382.774 57.872 384.532 88.9454 384.532 88.9454C384.532 88.9454 392.785 59.9363 403.445 65.2121C414.275 70.5714 392.866 94.1268 392.866 94.1268C392.866 94.1268 421.317 78.9814 424.058 90.858Z" fill="#FF0000"/>
<path d="M133.5 259.5C149 227.667 200.2 168 281 184C250.667 188 178.7 208.7 133.5 259.5Z" fill="#EDEDED"/>
<defs>
<filter id="filter0_b_7_45" x="89" y="146" width="333" height="333" filterUnits="userSpaceOnUse" color-interpolation-filters="sRGB">
<feFlood flood-opacity="0" result="BackgroundImageFix"/>
<feGaussianBlur in="BackgroundImageFix" stdDeviation="2"/>
<feComposite in2="SourceAlpha" operator="in" result="effect1_backgroundBlur_7_45"/>
<feBlend mode="normal" in="SourceGraphic" in2="effect1_backgroundBlur_7_45" result="shape"/>
</filter>
</defs>
</svg>
