<svg width="500" height="500" viewBox="0 0 500 500" fill="none" xmlns="http://www.w3.org/2000/svg">
<path d="M212 127.5C180.4 131.1 153.5 113 144 103.5L163.5 82.5C187.9 115.7 280 87 323 68.5C335.833 63.1666 369.7 61.6 402.5 98.0001C435.3 134.4 412.5 174.5 397 190C380.667 196.833 354 201.9 378 167.5C408 124.5 373 103.5 344 98.0001C315 92.5001 251.5 123 212 127.5Z" fill="#858585"/>
<path d="M344 152.5L324.5 172.5L394 250L412.5 223.5C405.7 189.5 364 162 344 152.5Z" fill="#21483F"/>
<circle cx="255.5" cy="312.5" r="162.5" fill="#2F675A"/>
<path d="M255.5 475C345.246 475 418 402.246 418 312.5C418 312.5 410.966 367.817 302.5 417.5C199 464.908 131.474 417.5 131.474 417.5C161.282 452.674 205.784 475 255.5 475Z" fill="#21483F"/>
<path d="M197 58.9999C202.881 75.066 162.5 85.9999 162.5 85.9999L145.5 105.5C145.5 105.5 141.491 142.701 126 140.5C109.568 138.165 126 97.9999 126 97.9999C126 97.9999 101.187 130.698 86 121C69.356 110.371 122.5 85.9999 122.5 85.9999C122.5 85.9999 68.7375 75.6534 79.5 58.9999C89.6047 43.3644 126 69.4999 126 69.4999C126 69.4999 98.6823 32.3878 115 25.4999C131.267 18.6334 139.5 63.4999 139.5 63.4999C139.5 63.4999 146.12 19.7912 162.5 25.4999C179.14 31.2991 152.5 69.4999 152.5 69.4999C152.5 69.4999 190.862 42.2324 197 58.9999Z" fill="#FFDF35"/>
<path d="M178.598 66.3399C182.634 77.2995 154.927 84.7582 154.927 84.7582L143.262 98.0603C143.262 98.0603 140.512 123.437 129.883 121.936C118.608 120.343 129.883 92.9441 129.883 92.9441C129.883 92.9441 112.857 115.25 102.437 108.634C91.0171 101.383 127.481 84.7582 127.481 84.7582C127.481 84.7582 90.5927 77.7002 97.9773 66.3399C104.911 55.674 129.883 73.5026 129.883 73.5026C129.883 73.5026 111.139 48.1862 122.335 43.4876C133.497 38.8035 139.146 69.4096 139.146 69.4096C139.146 69.4096 143.688 39.5933 154.927 43.4876C166.344 47.4435 148.065 73.5026 148.065 73.5026C148.065 73.5026 174.387 54.9018 178.598 66.3399Z" fill="#FFA235"/>
<path d="M133.5 259.5C149 227.667 200.2 168 281 184C250.667 188 178.7 208.7 133.5 259.5Z" fill="#BBB283"/>
</svg>
