<svg width="500" height="500" viewBox="0 0 500 500" fill="none" xmlns="http://www.w3.org/2000/svg">
<path d="M343.609 441.424C365.625 415.203 350.637 388.128 349.109 353.924C348.215 333.912 354.867 319.493 343.609 302.924C330.525 283.667 302.863 288.711 288.609 279.924L252.109 257.424C237.855 248.637 214.856 282.763 190.609 298.424C175.274 308.328 160.455 307.742 151.109 323.424C136.317 348.242 178.811 367.374 170.109 394.924C165.132 410.681 148.59 413.17 145.609 429.424C139.18 464.48 184.977 480.656 220.609 481.424C241.047 481.864 251.14 472.16 270.609 465.924C299.247 456.751 324.273 464.453 343.609 441.424Z" fill="#5F6599"/>
<path d="M183.109 323.424C155.909 331.824 171.776 354.924 183.109 365.424C282.309 290.224 258.109 285.424 233.609 292.424C228.109 299.257 210.309 315.024 183.109 323.424Z" fill="white"/>
</svg>
