<svg width="500" height="500" viewBox="0 0 500 500" fill="none" xmlns="http://www.w3.org/2000/svg">
<circle cx="123" cy="123" r="123" transform="matrix(4.37114e-08 -1 -1 -4.37114e-08 367.006 477.525)" fill="#8B89FF"/>
<path d="M268.506 158.525C236.615 239.068 366.506 357.525 366.506 357.525L123.006 357.525C123.006 357.525 260.22 240.569 228.506 158.525C208.842 107.657 139.416 204.035 123.006 152.025C93.1009 57.2427 407.928 57.4074 377.506 152.025C360.494 204.935 288.966 106.852 268.506 158.525Z" fill="#8B89FF"/>
<ellipse cx="50" cy="29" rx="50" ry="29" transform="matrix(-1 8.74228e-08 8.74228e-08 1 294 250)" fill="#F0F0F0"/>
<path d="M243.715 253C234.168 253.117 226.524 260.95 226.641 270.497C226.758 280.043 234.592 287.687 244.138 287.57C253.684 287.454 261.328 279.62 261.212 270.074C261.095 260.527 253.261 252.883 243.715 253Z" fill="#535353"/>
</svg>
