<svg width="500" height="500" viewBox="0 0 500 500" fill="none" xmlns="http://www.w3.org/2000/svg">
<g clip-path="url(#clip0_16_260)">
<path d="M19.4749 126C175.875 141.6 193.642 215.167 182.975 250C299.808 304.167 464.675 403.2 189.475 366C-85.7251 328.8 -38.5251 190.5 19.4749 126Z" fill="#90F28E"/>
<path d="M172.975 312C137.975 294.167 62.675 239.8 41.475 165" stroke="#5A7C59" stroke-opacity="0.81" stroke-width="14" stroke-linecap="round"/>
<path d="M91.4749 250.5C112.808 244.5 148.575 222 120.975 180" stroke="#5A7C59" stroke-opacity="0.81" stroke-width="14" stroke-linecap="round"/>
<path d="M59.4749 210C48.1416 220.5 18.7749 234.4 -8.02505 206" stroke="#5A7C59" stroke-opacity="0.81" stroke-width="14" stroke-linecap="round"/>
<path d="M128.975 295C115.308 307.167 78.3749 329 39.9749 319" stroke="#5A7C59" stroke-opacity="0.81" stroke-width="14" stroke-linecap="round"/>
<circle cx="123" cy="123" r="123" transform="matrix(4.37114e-08 -1 -1 -4.37114e-08 367.006 479.525)" fill="#8B89FF"/>
<path d="M268.506 160.525C288.966 108.852 360.494 206.935 377.506 154.025C407.928 59.4074 93.101 59.2427 123.006 154.025C139.416 206.035 208.842 109.657 228.506 160.525C236.234 180.518 213.91 192.084 206.006 214.025C201.683 226.025 222.815 232.873 220.935 237.025C192.163 300.578 123.006 359.525 123.006 359.525L366.506 359.525C366.506 359.525 299.249 300.234 272.506 237.025C270.748 232.87 289.506 228.525 289.506 211.025C282.112 188.95 260.66 180.34 268.506 160.525Z" fill="#8B89FF"/>
<ellipse cx="50" cy="29" rx="50" ry="29" transform="matrix(-1 0 0 1 294 265)" fill="#F0F0F0"/>
<circle cx="17.2865" cy="17.2865" r="17.2865" transform="matrix(-0.999925 0.0122375 0.0122375 0.999925 261.57 269)" fill="#535353"/>
</g>
<defs>
<clipPath id="clip0_16_260">
<rect width="500" height="500" fill="white"/>
</clipPath>
</defs>
</svg>
