<svg width="500" height="500" viewBox="0 0 500 500" fill="none" xmlns="http://www.w3.org/2000/svg">
<g clip-path="url(#clip0_16_270)">
<path d="M18.4749 126C174.875 141.6 192.642 215.167 181.975 250C298.808 304.167 463.675 403.2 188.475 366C-86.7251 328.8 -39.5251 190.5 18.4749 126Z" fill="#90F28E"/>
<path d="M171.975 312C136.975 294.167 61.6749 239.8 40.4749 165" stroke="#5A7C59" stroke-opacity="0.81" stroke-width="14" stroke-linecap="round"/>
<path d="M90.4749 250.5C111.808 244.5 147.575 222 119.975 180" stroke="#5A7C59" stroke-opacity="0.81" stroke-width="14" stroke-linecap="round"/>
<path d="M58.4749 210C47.1415 220.5 17.7749 234.4 -9.02515 206" stroke="#5A7C59" stroke-opacity="0.81" stroke-width="14" stroke-linecap="round"/>
<path d="M127.975 295C114.308 307.167 77.3749 329 38.9749 319" stroke="#5A7C59" stroke-opacity="0.81" stroke-width="14" stroke-linecap="round"/>
<circle cx="123" cy="123" r="123" transform="matrix(4.37114e-08 -1 -1 -4.37114e-08 367.006 479.525)" fill="#8B89FF"/>
<path d="M289.506 166.025C309.966 114.352 360.494 206.935 377.506 154.025C407.928 59.4074 93.101 59.2427 123.006 154.025C139.416 206.035 185.342 121.657 205.006 172.525C212.735 192.518 236.41 184.584 228.506 206.525C224.183 218.525 222.815 232.873 220.935 237.025C192.163 300.578 123.006 359.525 123.006 359.525L366.506 359.525C366.506 359.525 299.249 300.234 272.506 237.025C270.748 232.87 263.006 220.525 263.006 203.025C255.612 180.95 281.66 185.84 289.506 166.025Z" fill="#8B89FF"/>
<ellipse cx="50" cy="29" rx="50" ry="29" transform="matrix(-1 0 0 1 294 254)" fill="#F0F0F0"/>
<circle cx="17.2865" cy="17.2865" r="17.2865" transform="matrix(-0.999925 0.0122375 0.0122375 0.999925 261.57 260)" fill="#535353"/>
</g>
<defs>
<clipPath id="clip0_16_270">
<rect width="500" height="500" fill="white"/>
</clipPath>
</defs>
</svg>
