<svg width="500" height="500" viewBox="0 0 500 500" fill="none" xmlns="http://www.w3.org/2000/svg">
<g clip-path="url(#clip0_16_280)">
<path d="M455.818 80.5004C462.235 84.875 360.319 123.047 308.559 141.586L181.703 178.091L115.229 58.8546L187.883 97.566L217.535 9.94742L259.678 45.7801L318.998 0.543876L343.227 57.948C378.083 63.6428 449.4 76.1259 455.818 80.5004Z" fill="#ED2121"/>
<path d="M353.803 115.613C357.23 117.96 302.801 138.447 275.159 148.397L207.411 167.989L171.908 103.991L210.71 124.769L226.545 77.7425L249.052 96.9752L280.732 72.6965L293.672 103.507C312.288 106.564 350.375 113.265 353.803 115.613Z" fill="#EDE521"/>
<circle cx="123" cy="123" r="123" transform="matrix(4.37114e-08 -1 -1 -4.37114e-08 373 470.556)" fill="#8B89FF"/>
<path d="M274.499 185.056C242.608 265.599 372.498 350.556 372.498 350.556L128.997 350.556C128.997 350.556 266.214 267.099 234.499 185.056C214.835 134.187 165.41 262.066 149 210.056C119.095 115.273 390.922 111.438 360.5 206.056C343.488 258.965 294.959 133.382 274.499 185.056Z" fill="#8B89FF"/>
<ellipse cx="50" cy="29" rx="50" ry="29" transform="matrix(1 8.74228e-08 8.74228e-08 -1 201 302)" fill="#F0F0F0"/>
<path d="M271.285 266.003C271.169 256.457 263.335 248.813 253.789 248.93C244.242 249.046 236.598 256.88 236.715 266.426C236.832 275.973 244.665 283.617 254.212 283.5C263.758 283.383 271.402 275.55 271.285 266.003Z" fill="#535353"/>
</g>
<defs>
<clipPath id="clip0_16_280">
<rect width="500" height="500" fill="white"/>
</clipPath>
</defs>
</svg>
