<svg width="500" height="500" viewBox="0 0 500 500" fill="none" xmlns="http://www.w3.org/2000/svg">
<circle cx="123" cy="123" r="123" transform="matrix(-1 0 0 1 396.525 242.574)" fill="#8B89FF"/>
<path d="M77.5252 341.074C158.068 372.965 276.525 243.074 276.525 243.074V486.574C276.525 486.574 159.569 349.359 77.5252 381.074C26.6564 400.738 123.035 470.164 71.0252 486.574C-23.7574 516.479 -23.5927 201.652 71.0252 232.074C123.935 249.085 25.8514 320.614 77.5252 341.074Z" fill="#8B89FF"/>
<ellipse cx="50" cy="29" rx="50" ry="29" transform="matrix(-1 0 0 1 326.525 281.574)" fill="#F0F0F0"/>
<circle cx="17.2865" cy="17.2865" r="17.2865" transform="matrix(-0.999925 0.0122375 0.0122375 0.999925 273.102 293.574)" fill="#535353"/>
</svg>
