<svg width="500" height="500" viewBox="0 0 500 500" fill="none" xmlns="http://www.w3.org/2000/svg">
<path d="M94.5 83C250.9 98.6 268.667 172.167 258 207C374.833 261.167 539.7 360.2 264.5 323C-10.7 285.8 36.5 147.5 94.5 83Z" fill="#90F28E"/>
<path d="M248 269C213 251.167 137.7 196.8 116.5 122" stroke="#5A7C59" stroke-opacity="0.81" stroke-width="14" stroke-linecap="round"/>
<path d="M166.5 207.5C187.833 201.5 223.6 179 196 137" stroke="#5A7C59" stroke-opacity="0.81" stroke-width="14" stroke-linecap="round"/>
<path d="M134.5 167C123.167 177.5 93.8 191.4 67 163" stroke="#5A7C59" stroke-opacity="0.81" stroke-width="14" stroke-linecap="round"/>
<path d="M204 252C190.333 264.167 153.4 286 115 276" stroke="#5A7C59" stroke-opacity="0.81" stroke-width="14" stroke-linecap="round"/>
<circle cx="123" cy="123" r="123" transform="matrix(-1 0 0 1 483 127)" fill="#8B89FF"/>
<path d="M164 225.5C244.543 257.392 363 127.5 363 127.5V371C363 371 246.044 233.786 164 265.501C113.131 285.164 209.51 354.59 157.5 371C62.7173 400.905 62.882 86.0781 157.5 116.5C210.409 133.512 112.326 205.04 164 225.5Z" fill="#8B89FF"/>
<ellipse cx="50" cy="29" rx="50" ry="29" transform="matrix(-1 0 0 1 413 166)" fill="#F0F0F0"/>
<circle cx="17.2865" cy="17.2865" r="17.2865" transform="matrix(-0.999925 0.0122375 0.0122375 0.999925 359.577 178)" fill="#535353"/>
</svg>
