<svg width="500" height="500" viewBox="0 0 500 500" fill="none" xmlns="http://www.w3.org/2000/svg">
<circle cx="123" cy="123" r="123" transform="matrix(-1 0 0 1 396.525 242.574)" fill="#8B89FF"/>
<path d="M77.5253 341.074C25.8515 320.614 123.935 249.085 71.0253 232.074C-23.5927 201.652 -23.7574 516.479 71.0253 486.574C123.035 470.164 26.6564 400.738 77.5253 381.074C97.5179 373.346 109.084 395.669 131.025 403.574C143.025 407.897 149.873 386.765 154.025 388.645C217.578 417.417 276.525 486.574 276.525 486.574V243.074C276.525 243.074 217.234 310.331 154.025 337.074C149.87 338.832 145.525 320.074 128.025 320.074C105.949 327.468 97.34 348.92 77.5253 341.074Z" fill="#8B89FF"/>
<ellipse cx="50" cy="29" rx="50" ry="29" transform="matrix(-1 0 0 1 326.525 281.574)" fill="#F0F0F0"/>
<circle cx="17.2865" cy="17.2865" r="17.2865" transform="matrix(-0.999925 0.0122375 0.0122375 0.999925 273.102 293.574)" fill="#535353"/>
</svg>
