<svg width="500" height="500" viewBox="0 0 500 500" fill="none" xmlns="http://www.w3.org/2000/svg">
<circle cx="123" cy="123" r="123" transform="matrix(-1 0 0 1 396.525 242.574)" fill="#8B89FF"/>
<path d="M83.0253 320.074C31.3515 299.613 123.935 249.085 71.0253 232.074C-23.5927 201.652 -23.7574 516.479 71.0253 486.574C123.035 470.164 38.6564 424.238 89.5253 404.574C109.518 396.845 101.584 373.17 123.525 381.074C135.525 385.397 149.873 386.765 154.025 388.645C217.578 417.417 276.525 486.574 276.525 486.574V243.074C276.525 243.074 217.234 310.331 154.025 337.074C149.87 338.832 137.525 346.574 120.025 346.574C97.9495 353.968 102.84 327.919 83.0253 320.074Z" fill="#8B89FF"/>
<ellipse cx="50" cy="29" rx="50" ry="29" transform="matrix(-1 0 0 1 326.525 281.574)" fill="#F0F0F0"/>
<circle cx="17.2865" cy="17.2865" r="17.2865" transform="matrix(-0.999925 0.0122375 0.0122375 0.999925 273.102 293.574)" fill="#535353"/>
</svg>
