<svg width="500" height="500" viewBox="0 0 500 500" fill="none" xmlns="http://www.w3.org/2000/svg">
<path d="M94.5001 83C250.9 98.6 268.667 172.167 258 207C374.833 261.167 539.7 360.2 264.5 323C-10.7 285.8 36.5001 147.5 94.5001 83Z" fill="#90F28E"/>
<path d="M248 269C213 251.167 137.7 196.8 116.5 122" stroke="#5A7C59" stroke-opacity="0.81" stroke-width="14" stroke-linecap="round"/>
<path d="M166.5 207.5C187.833 201.5 223.6 179 196 137" stroke="#5A7C59" stroke-opacity="0.81" stroke-width="14" stroke-linecap="round"/>
<path d="M134.5 167C123.167 177.5 93.8 191.4 67 163" stroke="#5A7C59" stroke-opacity="0.81" stroke-width="14" stroke-linecap="round"/>
<path d="M204 252C190.333 264.167 153.4 286 115 276" stroke="#5A7C59" stroke-opacity="0.81" stroke-width="14" stroke-linecap="round"/>
<circle cx="123" cy="123" r="123" transform="matrix(-1 0 0 1 483 127)" fill="#8B89FF"/>
<path d="M169.5 204.5C117.826 184.04 210.409 133.512 157.5 116.5C62.882 86.0781 62.7173 400.905 157.5 371C209.51 354.59 125.131 308.664 176 289C195.993 281.272 188.059 257.596 210 265.501C222 269.823 236.348 271.191 240.5 273.071C304.053 301.843 363 371 363 371V127.5C363 127.5 303.709 194.757 240.5 221.5C236.345 223.258 224 231 206.5 231C184.424 238.395 189.315 212.346 169.5 204.5Z" fill="#8B89FF"/>
<ellipse cx="50" cy="29" rx="50" ry="29" transform="matrix(-1 0 0 1 413 166)" fill="#F0F0F0"/>
<circle cx="17.2865" cy="17.2865" r="17.2865" transform="matrix(-0.999925 0.0122375 0.0122375 0.999925 359.577 178)" fill="#535353"/>
</svg>
