<svg width="500" height="500" viewBox="0 0 500 500" fill="none" xmlns="http://www.w3.org/2000/svg">
<g clip-path="url(#clip0_16_236)">
<path d="M6.02527 184.574C10.4253 178.174 48.1919 280.24 66.5253 332.074L102.525 459.074L-16.9747 525.074L22.0253 452.574L-65.4747 422.574L-29.4747 380.574L-74.4747 321.074L-16.9747 297.074C-11.1414 262.24 1.62527 190.974 6.02527 184.574Z" fill="#ED2121"/>
<path d="M40.7315 286.727C43.0931 283.309 63.3633 337.819 73.2032 365.501L92.5253 433.326L28.3869 468.574L49.3191 429.855L2.35578 413.833L21.6778 391.403L-2.47472 359.626L28.3869 346.809C31.5177 328.206 38.3699 290.145 40.7315 286.727Z" fill="#EDE521"/>
<circle cx="123" cy="123" r="123" transform="matrix(-1 0 0 1 396.525 242.574)" fill="#8B89FF"/>
<path d="M111.025 341.075C191.568 372.966 276.525 243.076 276.525 243.076V486.576C276.525 486.576 193.069 349.36 111.025 381.075C60.1564 400.739 188.035 450.164 136.025 466.574C41.2426 496.479 37.4073 224.652 132.025 255.074C184.935 272.085 59.3515 320.614 111.025 341.075Z" fill="#8B89FF"/>
<ellipse cx="50" cy="29" rx="50" ry="29" transform="matrix(-1 0 0 1 326.525 281.574)" fill="#F0F0F0"/>
<circle cx="17.2865" cy="17.2865" r="17.2865" transform="matrix(-0.999925 0.0122375 0.0122375 0.999925 273.102 293.574)" fill="#535353"/>
</g>
<defs>
<clipPath id="clip0_16_236">
<rect width="500" height="500" fill="white"/>
</clipPath>
</defs>
</svg>
