<svg width="500" height="500" viewBox="0 0 500 500" fill="none" xmlns="http://www.w3.org/2000/svg">
<path d="M94.5001 83C250.9 98.6 268.667 172.167 258 207C374.833 261.167 539.7 360.2 264.5 323C-10.7 285.8 36.5001 147.5 94.5001 83Z" fill="#90F28E"/>
<path d="M248 269C213 251.167 137.7 196.8 116.5 122" stroke="#5A7C59" stroke-opacity="0.81" stroke-width="14" stroke-linecap="round"/>
<path d="M166.5 207.5C187.833 201.5 223.6 179 196 137" stroke="#5A7C59" stroke-opacity="0.81" stroke-width="14" stroke-linecap="round"/>
<path d="M134.5 167C123.167 177.5 93.8 191.4 67 163" stroke="#5A7C59" stroke-opacity="0.81" stroke-width="14" stroke-linecap="round"/>
<path d="M204 252C190.333 264.167 153.4 286 115 276" stroke="#5A7C59" stroke-opacity="0.81" stroke-width="14" stroke-linecap="round"/>
<path d="M92.5 68.9998C96.9 62.5998 134.667 164.667 153 216.5L189 343.5L69.5 409.5L108.5 337L21 307L57 265L12 205.5L69.5 181.5C75.3333 146.667 88.1 75.3998 92.5 68.9998Z" fill="#ED2121"/>
<path d="M127.206 171.154C129.568 167.736 149.838 222.245 159.678 249.927L179 317.752L114.862 353L135.794 314.281L88.8305 298.259L108.153 275.829L84 244.052L114.862 231.235C117.992 212.632 124.845 174.571 127.206 171.154Z" fill="#EDE521"/>
<circle cx="123" cy="123" r="123" transform="matrix(-1 0 0 1 483 127)" fill="#8B89FF"/>
<path d="M197.5 225.501C278.043 257.392 363 127.502 363 127.502V371.003C363 371.003 279.544 233.786 197.5 265.501C146.631 285.165 274.51 334.59 222.5 351C127.717 380.905 123.882 109.078 218.5 139.5C271.409 156.512 145.826 205.041 197.5 225.501Z" fill="#8B89FF"/>
<ellipse cx="50" cy="29" rx="50" ry="29" transform="matrix(-1 0 0 1 413 166)" fill="#F0F0F0"/>
<circle cx="17.2865" cy="17.2865" r="17.2865" transform="matrix(-0.999925 0.0122375 0.0122375 0.999925 359.577 178)" fill="#535353"/>
</svg>
