<svg width="500" height="500" viewBox="0 0 500 500" fill="none" xmlns="http://www.w3.org/2000/svg">
<circle cx="244.006" cy="226" r="123" transform="rotate(90 244.006 226)" fill="#8B89FF"/>
<path d="M268.506 422C236.615 341.457 366.506 223 366.506 223L123.006 223C123.006 223 260.22 339.956 228.506 422C208.842 472.869 139.416 376.49 123.006 428.5C93.1009 523.283 407.928 523.118 377.506 428.5C360.494 375.591 288.966 473.674 268.506 422Z" fill="#8B89FF"/>
<ellipse cx="244" cy="301.525" rx="50" ry="29" transform="rotate(-180 244 301.525)" fill="#F0F0F0"/>
<path d="M243.715 327.525C234.168 327.409 226.524 319.575 226.641 310.029C226.758 300.482 234.592 292.838 244.138 292.955C253.684 293.072 261.328 300.905 261.212 310.452C261.095 319.998 253.261 327.642 243.715 327.525Z" fill="#535353"/>
</svg>
