<svg width="500" height="500" viewBox="0 0 500 500" fill="none" xmlns="http://www.w3.org/2000/svg">
<g clip-path="url(#clip0_16_306)">
<path d="M19.4749 374C175.875 358.4 193.642 284.833 182.975 250C299.808 195.833 464.675 96.8 189.475 134C-85.7251 171.2 -38.5251 309.5 19.4749 374Z" fill="#90F28E"/>
<path d="M172.975 188C137.975 205.833 62.675 260.2 41.475 335" stroke="#5A7C59" stroke-opacity="0.81" stroke-width="14" stroke-linecap="round"/>
<path d="M91.4749 249.5C112.808 255.5 148.575 278 120.975 320" stroke="#5A7C59" stroke-opacity="0.81" stroke-width="14" stroke-linecap="round"/>
<path d="M59.4749 290C48.1416 279.5 18.7749 265.6 -8.02505 294" stroke="#5A7C59" stroke-opacity="0.81" stroke-width="14" stroke-linecap="round"/>
<path d="M128.975 205C115.308 192.833 78.3749 171 39.9749 181" stroke="#5A7C59" stroke-opacity="0.81" stroke-width="14" stroke-linecap="round"/>
<circle cx="244.006" cy="143.475" r="123" transform="rotate(90 244.006 143.475)" fill="#8B89FF"/>
<path d="M268.506 339.475C288.966 391.148 360.494 293.065 377.506 345.975C407.928 440.593 93.101 440.757 123.006 345.975C139.416 293.965 208.842 390.343 228.506 339.475C236.234 319.482 213.91 307.916 206.006 285.975C201.683 273.975 222.815 267.127 220.935 262.975C192.163 199.422 123.006 140.475 123.006 140.475L366.506 140.475C366.506 140.475 299.249 199.766 272.506 262.975C270.748 267.13 289.506 271.475 289.506 288.975C282.112 311.05 260.66 319.66 268.506 339.475Z" fill="#8B89FF"/>
<ellipse cx="244" cy="206" rx="50" ry="29" transform="rotate(180 244 206)" fill="#F0F0F0"/>
<circle cx="244.497" cy="213.503" r="17.2865" transform="rotate(-179.299 244.497 213.503)" fill="#535353"/>
</g>
<defs>
<clipPath id="clip0_16_306">
<rect width="500" height="500" fill="white" transform="matrix(1 0 0 -1 0 500)"/>
</clipPath>
</defs>
</svg>
