<svg width="500" height="500" viewBox="0 0 500 500" fill="none" xmlns="http://www.w3.org/2000/svg">
<circle cx="244.006" cy="224" r="123" transform="rotate(90 244.006 224)" fill="#8B89FF"/>
<path d="M268.506 420C288.966 471.674 360.494 373.591 377.506 426.5C407.928 521.118 93.101 521.283 123.006 426.5C139.416 374.49 208.842 470.869 228.506 420C236.234 400.007 213.91 388.441 206.006 366.5C201.683 354.5 222.815 347.652 220.935 343.5C192.163 279.947 123.006 221 123.006 221L366.506 221C366.506 221 299.249 280.291 272.506 343.5C270.748 347.655 289.506 352 289.506 369.5C282.112 391.576 260.66 400.185 268.506 420Z" fill="#8B89FF"/>
<ellipse cx="244" cy="286.525" rx="50" ry="29" transform="rotate(180 244 286.525)" fill="#F0F0F0"/>
<circle cx="244.497" cy="294.029" r="17.2865" transform="rotate(-179.299 244.497 294.029)" fill="#535353"/>
</svg>
