<svg width="500" height="500" viewBox="0 0 500 500" fill="none" xmlns="http://www.w3.org/2000/svg">
<circle cx="244.006" cy="224" r="123" transform="rotate(90 244.006 224)" fill="#8B89FF"/>
<path d="M289.506 414.5C309.966 466.174 360.494 373.591 377.506 426.5C407.928 521.118 93.101 521.283 123.006 426.5C139.416 374.49 185.342 458.869 205.006 408C212.735 388.007 236.41 395.941 228.506 374C224.183 362 222.815 347.652 220.935 343.5C192.163 279.947 123.006 221 123.006 221L366.506 221C366.506 221 299.249 280.291 272.506 343.5C270.748 347.655 263.006 360 263.006 377.5C255.612 399.576 281.66 394.685 289.506 414.5Z" fill="#8B89FF"/>
<ellipse cx="50" cy="29" rx="50" ry="29" transform="matrix(1 0 0 -1 194 330.525)" fill="#F0F0F0"/>
<circle cx="244.497" cy="309.022" r="17.2865" transform="rotate(90.7012 244.497 309.022)" fill="#535353"/>
</svg>
