<svg width="500" height="500" viewBox="0 0 500 500" fill="none" xmlns="http://www.w3.org/2000/svg">
<g clip-path="url(#clip0_16_327)">
<path d="M13.4749 374C169.875 358.4 187.642 284.833 176.975 250C293.808 195.833 458.675 96.8 183.475 134C-91.7251 171.2 -44.5251 309.5 13.4749 374Z" fill="#90F28E"/>
<path d="M166.975 188C131.975 205.833 56.6749 260.2 35.4749 335" stroke="#5A7C59" stroke-opacity="0.81" stroke-width="14" stroke-linecap="round"/>
<path d="M85.4749 249.5C106.808 255.5 142.575 278 114.975 320" stroke="#5A7C59" stroke-opacity="0.81" stroke-width="14" stroke-linecap="round"/>
<path d="M53.4749 290C42.1415 279.5 12.7749 265.6 -14.0251 294" stroke="#5A7C59" stroke-opacity="0.81" stroke-width="14" stroke-linecap="round"/>
<path d="M122.975 205C109.308 192.833 72.3749 171 33.9749 181" stroke="#5A7C59" stroke-opacity="0.81" stroke-width="14" stroke-linecap="round"/>
<path d="M455.818 419.5C462.235 415.125 360.319 376.953 308.559 358.414L181.703 321.909L115.229 441.145L187.883 402.434L217.535 490.053L259.678 454.22L318.998 499.456L343.227 442.052C378.083 436.357 449.4 423.874 455.818 419.5Z" fill="#ED2121"/>
<path d="M353.803 384.387C357.23 382.04 302.801 361.553 275.159 351.603L207.411 332.011L171.908 396.009L210.71 375.231L226.545 422.257L249.052 403.025L280.732 427.303L293.672 396.493C312.288 393.436 350.375 386.735 353.803 384.387Z" fill="#EDE521"/>
<circle cx="123" cy="123" r="123" transform="matrix(4.37114e-08 -1 -1 -4.37114e-08 373 275.444)" fill="#8B89FF"/>
<path d="M274.499 314.944C242.608 234.401 372.498 149.444 372.498 149.444L128.997 149.444C128.997 149.444 266.214 232.901 234.499 314.944C214.835 365.813 165.41 237.934 149 289.944C119.095 384.727 390.922 388.562 360.5 293.944C343.488 241.035 294.959 366.618 274.499 314.944Z" fill="#8B89FF"/>
<ellipse cx="251" cy="233" rx="50" ry="29" transform="rotate(-180 251 233)" fill="#F0F0F0"/>
<circle cx="251.497" cy="238.497" r="17.2865" transform="rotate(90.7012 251.497 238.497)" fill="#535353"/>
</g>
<defs>
<clipPath id="clip0_16_327">
<rect width="500" height="500" fill="white" transform="matrix(1 0 0 -1 0 500)"/>
</clipPath>
</defs>
</svg>
