<svg width="500" height="500" viewBox="0 0 500 500" fill="none" xmlns="http://www.w3.org/2000/svg">
<g clip-path="url(#clip0_16_327)">
<path d="M64.1214 467.07C58.18 462.068 163.438 434.415 216.81 421.214L346.711 397.746L400.766 523.102L332.406 477.231L294.032 561.396L255.736 521.478L192.138 560.474L173.849 500.911C139.748 491.714 70.0627 472.072 64.1214 467.07Z" fill="#ED2121"/>
<path d="M169.168 442.471C165.996 439.788 222.22 424.92 250.728 417.821L320.112 405.192L348.95 472.457L312.452 447.856L291.935 493.037L271.492 471.623L237.516 492.568L227.763 460.605C209.553 455.679 172.34 445.155 169.168 442.471Z" fill="#EDE521"/>
<circle cx="123" cy="123" r="123" transform="matrix(4.37114e-08 -1 -1 -4.37114e-08 373 355.97)" fill="#8B89FF"/>
<path d="M274.499 395.47C242.608 314.927 372.498 229.97 372.498 229.97L128.997 229.97C128.997 229.97 266.214 313.426 234.499 395.47C214.835 446.339 165.41 318.46 149 370.47C119.095 465.252 390.922 469.088 360.5 374.47C343.488 321.56 294.959 447.144 274.499 395.47Z" fill="#8B89FF"/>
<ellipse cx="251" cy="313.525" rx="50" ry="29" transform="rotate(-180 251 313.525)" fill="#F0F0F0"/>
<circle cx="251.497" cy="319.022" r="17.2865" transform="rotate(90.7012 251.497 319.022)" fill="#535353"/>
</g>
<defs>
<clipPath id="clip0_16_327">
<rect width="500" height="500" fill="white" transform="matrix(1 0 0 -1 0 500)"/>
</clipPath>
</defs>
</svg>
