<svg width="500" height="500" viewBox="0 0 500 500" fill="none" xmlns="http://www.w3.org/2000/svg">
<path d="M167.5 239L124 212.5L128 195C132 187.333 141.5 168.9 147.5 156.5C153.5 144.1 194.333 120.667 214 110.5L260.5 98L309 95.5L265 135.5L233.5 168L220 185L167.5 239Z" fill="#A4571F"/>
<path d="M161 173L151.5 164L137.5 199.5L172.5 228.5L206 197L210.5 188.5L230.5 164L257 136.5L299 99.5L263.5 105L221 116.5L168.5 146.5L172.5 167L161 158V173Z" fill="#904A03"/>
<path d="M309.5 240C303.5 243.2 284 286.333 275 307.5L264.5 311.5L176 258.5L166.5 234.5L236 171.5L264.5 151.5L283.5 145.5L321 137L373.5 135L416 144L483.5 167.5C327 209.5 317 236 309.5 240Z" fill="#A4571F"/>
<path d="M409.5 151L468.5 166.5L385 193.5L340 211.5L319 223L306.5 233L286 265.5L268.5 301H263.5L182.5 250.5L263.5 163.5L271 177.5L277.5 161L286 177.5L292.5 151L368 144L409.5 151Z" fill="#904A03"/>
<path d="M324 370C312.8 372.8 300 366.5 295 363C281.167 358.167 256.7 352.2 269.5 367C282.3 381.8 299.5 385.833 306.5 386L326 380C333.2 392.8 344.667 391 349.5 388.5V379.5C339.9 383.1 335.833 377 335 373.5L341 363L353.5 353.5L347 351L338 351.5L324 370Z" fill="#8E4A16"/>
<path d="M353.5 378C337.5 377.6 327.5 362.167 324.5 354.5C305.667 346.833 273.8 337.5 297 361.5C320.2 385.5 341.667 389.833 349.5 389C351.5 397 358 403 361 405H372L383.5 398L369 396L362 387.5L369 379L384.5 372.5C380.833 370.5 373 366.5 371 366.5C369 366.5 358.5 374.167 353.5 378Z" fill="#A4571F"/>
<path d="M193 295L154.5 262C144.5 265.5 126.7 277.7 135.5 298.5C144.3 319.3 182.833 345.833 201 356.5C213.167 361.833 243.6 371.6 268 368C292.4 364.4 316.833 357.167 326 354L354 341L279.5 331.5L221.5 314.5L193 295Z" fill="#BD6E35"/>
<path d="M176.5 257L164.5 226.5H161L150 264.5L212.5 317L283 334.5L353.5 341L321 323L274 307.5L266.5 310.5L176.5 257Z" fill="#A4571F"/>
<path d="M89 289.5L66 321.5L73 317.5L97.5 287.5L96.5 280.5L89 289.5Z" fill="#E54E7D"/>
<path d="M43 274.5C33 286.1 21.1667 319 16.5 334C68 272 96.5 274.5 98.5 276.5C100.1 278.1 96.5 283.833 94.5 286.5L65 323.5L34 349.5L136 299L153.5 263L174 202.5L195 181L239 141L166 168.5L128.5 193.5L70 237.5L59 252L43 274.5Z" fill="#BD6E35"/>
<circle cx="96" cy="245" r="12" fill="white"/>
<circle cx="93" cy="249" r="5" fill="#56331A"/>
</svg>
