<svg width="500" height="500" viewBox="0 0 500 500" fill="none" xmlns="http://www.w3.org/2000/svg">
<path d="M211.129 160.02L187.765 114.758L170.027 117.513C162.097 120.962 143.039 129.137 130.246 134.247C117.454 139.357 91.197 178.434 79.6677 197.334L63.9169 242.836L58 291.039L101.006 249.972L135.648 220.844L153.558 208.577L211.129 160.02Z" fill="#A4571F"/>
<path d="M145.753 148.878L137.445 138.766L173.845 127.307L200.302 164.266L166.517 195.459L157.72 199.348L131.87 217.569L102.568 242.062L62.6958 281.346L70.6877 246.323L85.1586 204.74L118.789 154.489L138.956 159.926L130.79 147.819L145.753 148.878Z" fill="#904A03"/>
<path d="M278.81 194.465C272.221 192.782 228.735 211.483 207.816 221.044L197.365 216.917L167.755 118.101L176.924 93.973L270.728 94.319L305.26 98.7692L323.336 107.151L356.758 126.162L396.874 160.088L422.188 195.393L456.185 258.264C312.299 183.744 287.045 196.569 278.81 194.465Z" fill="#A4571F"/>
<path d="M412.668 196.179L445.783 247.411L365.917 211.041L320.55 193.987L297.288 188.318L281.315 187.273L244.261 197.448L207.4 211.861L203.708 208.489L177.949 116.577L296.429 106.956L292.527 122.351L308.453 114.551L303.603 132.466L326.273 117.281L386.744 163.025L412.668 196.179Z" fill="#904A03"/>
<path d="M328.5 237C317.3 239.8 304.5 233.5 299.5 230C285.667 225.167 261.2 219.2 274 234C286.8 248.8 304 252.833 311 253L330.5 247C337.7 259.8 349.167 258 354 255.5V246.5C344.4 250.1 340.333 244 339.5 240.5L345.5 230L358 220.5L351.5 218L342.5 218.5L328.5 237Z" fill="#8E4A16"/>
<path d="M358 245C342 244.6 332 229.167 329 221.5C310.167 213.833 278.3 204.5 301.5 228.5C324.7 252.5 346.167 256.833 354 256C356 264 362.5 270 365.5 272H376.5L388 265L373.5 263L366.5 254.5L373.5 246L389 239.5C385.333 237.5 377.5 233.5 375.5 233.5C373.5 233.5 363 241.167 358 245Z" fill="#A4571F"/>
<path d="M93.5 156.5L70.5 188.5L77.5 184.5L102 154.5L101 147.5L93.5 156.5Z" fill="#E54E7D"/>
<path d="M47.5 141.5C37.5 153.1 25.6667 186 21 201C72.5 139 101 141.5 103 143.5C104.6 145.1 101 150.833 99 153.5L69.5 190.5L38.5 216.5L140.5 166L158 130L178.5 69.5L199.5 48L243.5 8L170.5 35.5L133 60.5L74.5 104.5L63.5 119L47.5 141.5Z" fill="#BD6E35"/>
<circle cx="100.5" cy="112" r="12" fill="white"/>
<circle cx="97.5" cy="116" r="5" fill="#56331A"/>
<path d="M197.5 162L159 129C149 132.5 131.2 144.7 140 165.5C148.8 186.3 187.333 212.833 205.5 223.5C217.667 228.833 248.1 238.6 272.5 235C296.9 231.4 321.333 224.167 330.5 221L358.5 208L284 198.5L226 181.5L197.5 162Z" fill="#BD6E35"/>
<path d="M181 124L169 93.5H165.5L154.5 131.5L217 184L287.5 201.5L358 208L325.5 190L278.5 174.5L271 177.5L181 124Z" fill="#A4571F"/>
</svg>
