<svg width="500" height="500" viewBox="0 0 500 500" fill="none" xmlns="http://www.w3.org/2000/svg">
<path d="M211.129 160.02L187.765 114.758L170.027 117.513C162.097 120.962 143.039 129.137 130.246 134.247C117.454 139.357 91.197 178.434 79.6677 197.334L63.9169 242.836L58 291.039L101.006 249.972L135.648 220.844L153.558 208.577L211.129 160.02Z" fill="#A4571F"/>
<path d="M145.752 148.878L137.445 138.766L173.845 127.307L200.302 164.266L166.517 195.459L157.72 199.348L131.87 217.569L102.568 242.062L62.6958 281.346L70.6876 246.323L85.1586 204.74L118.789 154.489L138.956 159.926L130.79 147.819L145.752 148.878Z" fill="#904A03"/>
<path d="M278.81 194.465C272.221 192.782 228.735 211.483 207.816 221.044L197.365 216.917L167.755 118.101L176.924 93.973L270.728 94.319L305.26 98.7692L323.336 107.151L356.758 126.162L396.874 160.088L422.188 195.393L456.185 258.264C312.299 183.744 287.045 196.569 278.81 194.465Z" fill="#A4571F"/>
<path d="M412.668 196.179L445.783 247.411L365.917 211.041L320.55 193.987L297.288 188.318L281.315 187.273L244.261 197.448L207.4 211.861L203.707 208.489L177.949 116.577L296.429 106.956L292.526 122.351L308.453 114.551L303.603 132.466L326.273 117.281L386.744 163.025L412.668 196.179Z" fill="#904A03"/>
<path d="M256.521 279.543C264.712 271.407 265.943 257.194 265.534 251.105C268.555 236.766 276.106 212.741 282.15 231.352C288.193 249.962 282.746 266.768 279.267 272.845L264.044 286.428C271.273 299.212 263.801 308.094 259.161 310.937L251.459 306.281C259.506 299.928 256.39 293.292 253.826 290.768L241.736 290.47L227.139 296.253L228.363 289.397L233.447 281.953L256.521 279.543Z" fill="#8E4A16"/>
<path d="M221.86 266.372C222.709 250.39 238.417 240.827 246.165 238.043C254.358 219.433 264.582 187.841 239.94 210.358C215.298 232.874 210.364 254.211 210.977 262.065C202.924 263.839 196.743 270.168 194.66 273.111L194.351 284.106L201.025 295.798L203.432 281.36L212.125 274.602L220.425 281.838L226.487 297.514C228.589 293.905 232.808 286.187 232.864 284.188C232.92 282.189 225.551 271.478 221.86 266.372Z" fill="#A4571F"/>
<path d="M93.5 156.5L70.5 188.5L77.5 184.5L102 154.5L101 147.5L93.5 156.5Z" fill="#E54E7D"/>
<path d="M47.5 141.5C37.5 153.1 25.6667 186 21 201C72.5 139 101 141.5 103 143.5C104.6 145.1 101 150.833 99 153.5L69.5 190.5L38.5 216.5L140.5 166L158 130L178.5 69.5L199.5 48L243.5 8L170.5 35.5L133 60.5L74.5 104.5L63.5 119L47.5 141.5Z" fill="#BD6E35"/>
<circle cx="100.5" cy="112" r="12" fill="white"/>
<circle cx="97.5" cy="116" r="5" fill="#56331A"/>
<path d="M197.5 162L159 129C149 132.5 131.2 144.7 140 165.5C148.8 186.3 187.333 212.833 205.5 223.5C217.667 228.833 248.1 238.6 272.5 235C296.9 231.4 321.333 224.167 330.5 221L358.5 208L284 198.5L226 181.5L197.5 162Z" fill="#BD6E35"/>
<path d="M181 124L169 93.5H165.5L154.5 131.5L217 184L287.5 201.5L358 208L325.5 190L278.5 174.5L271 177.5L181 124Z" fill="#A4571F"/>
</svg>
