<svg width="500" height="500" viewBox="0 0 500 500" fill="none" xmlns="http://www.w3.org/2000/svg">
<path d="M167.5 239L124 212.5L128 195C132 187.333 141.5 168.9 147.5 156.5C153.5 144.1 194.333 120.667 214 110.5L260.5 98L309 95.5L265 135.5L233.5 168L220 185L167.5 239Z" fill="#A4571F"/>
<path d="M161 173L151.5 164L137.5 199.5L172.5 228.5L206 197L210.5 188.5L230.5 164L257 136.5L299 99.5L263.5 105L221 116.5L168.5 146.5L172.5 167L161 158V173Z" fill="#904A03"/>
<path d="M309.5 240C303.5 243.2 284 286.333 275 307.5L264.5 311.5L176 258.5L166.5 234.5L236 171.5L264.5 151.5L283.5 145.5L321 137L373.5 135L416 144L483.5 167.5C327 209.5 317 236 309.5 240Z" fill="#A4571F"/>
<path d="M409.5 151L468.5 166.5L385 193.5L340 211.5L319 223L306.5 233L286 265.5L268.5 301H263.5L182.5 250.5L263.5 163.5L271 177.5L277.5 161L286 177.5L292.5 151L368 144L409.5 151Z" fill="#904A03"/>
<path d="M258.821 422.564C263.649 412.097 260.093 398.357 257.711 392.795C255.754 378.315 254.759 353.189 266.435 368.52C278.111 383.851 278.656 401.485 277.47 408.385L267.989 426.399C278.831 435.86 274.907 446.776 271.589 451.051L262.993 449.366C268.277 440.619 263.232 435.487 260.049 434.014L248.866 437.937L237.388 448.426L236.25 441.579L238.458 432.84L258.821 422.564Z" fill="#8E4A16"/>
<path d="M183.839 410.313C188.191 394.911 205.621 389.047 213.792 388.04C225.886 371.694 242.824 343.133 213.824 359.663C184.824 376.194 175.307 395.917 174.173 403.713C165.927 403.668 158.504 408.479 155.823 410.89L153.097 421.547L157.029 434.423L162.56 420.87L172.529 416.195L179.03 425.082L181.487 441.71C184.333 438.653 190.149 432.055 190.644 430.117C191.14 428.18 186.314 416.107 183.839 410.313Z" fill="#A4571F"/>
<path d="M193 295L154.5 262C144.5 265.5 126.7 277.7 135.5 298.5C144.3 319.3 182.833 345.833 201 356.5C213.167 361.833 243.6 371.6 268 368C292.4 364.4 316.833 357.167 326 354L354 341L279.5 331.5L221.5 314.5L193 295Z" fill="#BD6E35"/>
<path d="M176.5 257L164.5 226.5H161L150 264.5L212.5 317L283 334.5L353.5 341L321 323L274 307.5L266.5 310.5L176.5 257Z" fill="#A4571F"/>
<path d="M89 289.5L66 321.5L73 317.5L97.5 287.5L96.5 280.5L89 289.5Z" fill="#E54E7D"/>
<path d="M43 274.5C33 286.1 21.1667 319 16.5 334C68 272 96.5 274.5 98.5 276.5C100.1 278.1 96.5 283.833 94.5 286.5L65 323.5L34 349.5L136 299L153.5 263L174 202.5L195 181L239 141L166 168.5L128.5 193.5L70 237.5L59 252L43 274.5Z" fill="#BD6E35"/>
<circle cx="96" cy="245" r="12" fill="white"/>
<circle cx="93" cy="249" r="5" fill="#56331A"/>
</svg>
