<svg width="500" height="500" viewBox="0 0 500 500" fill="none" xmlns="http://www.w3.org/2000/svg">
<circle cx="226" cy="358.574" r="123" fill="#8B89FF"/>
<path d="M422 334.074C473.674 313.614 375.591 242.085 428.5 225.074C523.118 194.652 523.283 509.479 428.5 479.574C376.49 463.164 472.869 393.738 422 374.074C402.007 366.346 390.441 388.669 368.5 396.574C356.5 400.897 349.652 379.765 345.5 381.645C281.947 410.417 223 479.574 223 479.574V236.074C223 236.074 282.291 303.331 345.5 330.074C349.655 331.832 354 313.074 371.5 313.074C393.576 320.468 402.185 341.92 422 334.074Z" fill="#8B89FF"/>
<ellipse cx="223" cy="303.574" rx="50" ry="29" fill="#F0F0F0"/>
<circle cx="243.497" cy="304.07" r="17.2865" transform="rotate(0.701177 243.497 304.07)" fill="#535353"/>
</svg>
