<svg width="500" height="500" viewBox="0 0 500 500" fill="none" xmlns="http://www.w3.org/2000/svg">
<circle cx="226" cy="358.574" r="123" fill="#8B89FF"/>
<path d="M416.5 313.074C468.174 292.613 375.591 242.085 428.5 225.074C523.118 194.652 523.283 509.479 428.5 479.574C376.49 463.164 460.869 417.238 410 397.574C390.007 389.845 397.941 366.17 376 374.074C364 378.397 349.652 379.765 345.5 381.645C281.947 410.417 223 479.574 223 479.574V236.074C223 236.074 282.291 303.331 345.5 330.074C349.655 331.832 362 339.574 379.5 339.574C401.576 346.968 396.685 320.919 416.5 313.074Z" fill="#8B89FF"/>
<ellipse cx="223" cy="303.574" rx="50" ry="29" fill="#F0F0F0"/>
<circle cx="243.497" cy="304.07" r="17.2865" transform="rotate(0.701177 243.497 304.07)" fill="#535353"/>
</svg>
