<svg width="500" height="500" viewBox="0 0 500 500" fill="none" xmlns="http://www.w3.org/2000/svg">
<path d="M405.5 83C249.1 98.6 231.333 172.167 242 207C125.167 261.167 -39.7 360.2 235.5 323C510.7 285.8 463.5 147.5 405.5 83Z" fill="#90F28E"/>
<path d="M252 269C287 251.167 362.3 196.8 383.5 122" stroke="#5A7C59" stroke-opacity="0.81" stroke-width="14" stroke-linecap="round"/>
<path d="M333.5 207.5C312.167 201.5 276.4 179 304 137" stroke="#5A7C59" stroke-opacity="0.81" stroke-width="14" stroke-linecap="round"/>
<path d="M365.5 167C376.833 177.5 406.2 191.4 433 163" stroke="#5A7C59" stroke-opacity="0.81" stroke-width="14" stroke-linecap="round"/>
<path d="M296 252C309.667 264.167 346.6 286 385 276" stroke="#5A7C59" stroke-opacity="0.81" stroke-width="14" stroke-linecap="round"/>
<circle cx="140" cy="250" r="123" fill="#8B89FF"/>
<path d="M330.5 204.5C382.174 184.04 289.591 133.512 342.5 116.5C437.118 86.0781 437.283 400.905 342.5 371C290.49 354.59 374.869 308.664 324 289C304.007 281.272 311.941 257.596 290 265.501C278 269.823 263.652 271.191 259.5 273.071C195.947 301.843 137 371 137 371V127.5C137 127.5 196.291 194.757 259.5 221.5C263.655 223.258 276 231 293.5 231C315.576 238.395 310.685 212.346 330.5 204.5Z" fill="#8B89FF"/>
<ellipse cx="137" cy="195" rx="50" ry="29" fill="#F0F0F0"/>
<circle cx="157.497" cy="195.497" r="17.2865" transform="rotate(0.701177 157.497 195.497)" fill="#535353"/>
</svg>
