<svg width="500" height="500" viewBox="0 0 500 500" fill="none" xmlns="http://www.w3.org/2000/svg">
<path d="M405.5 83C249.1 98.6 231.333 172.167 242 207C125.167 261.167 -39.7001 360.2 235.5 323C510.7 285.8 463.5 147.5 405.5 83Z" fill="#90F28E"/>
<path d="M252 269C287 251.167 362.3 196.8 383.5 122" stroke="#5A7C59" stroke-opacity="0.81" stroke-width="14" stroke-linecap="round"/>
<path d="M333.5 207.5C312.167 201.5 276.4 179 304 137" stroke="#5A7C59" stroke-opacity="0.81" stroke-width="14" stroke-linecap="round"/>
<path d="M365.5 167C376.833 177.5 406.2 191.4 433 163" stroke="#5A7C59" stroke-opacity="0.81" stroke-width="14" stroke-linecap="round"/>
<path d="M296 252C309.667 264.167 346.6 286 385 276" stroke="#5A7C59" stroke-opacity="0.81" stroke-width="14" stroke-linecap="round"/>
<path d="M407.5 68.9998C403.1 62.5998 365.333 164.667 347 216.5L311 343.5L430.5 409.5L391.5 337L479 307L443 265L488 205.5L430.5 181.5C424.667 146.667 411.9 75.3998 407.5 68.9998Z" fill="#ED2121"/>
<path d="M372.794 171.154C370.432 167.736 350.162 222.245 340.322 249.927L321 317.752L385.138 353L364.206 314.281L411.169 298.259L391.847 275.829L416 244.052L385.138 231.235C382.008 212.632 375.155 174.571 372.794 171.154Z" fill="#EDE521"/>
<circle cx="140" cy="250" r="123" fill="#8B89FF"/>
<path d="M302.5 225.501C221.957 257.392 137 127.502 137 127.502V371.003C137 371.003 220.456 233.786 302.5 265.501C353.369 285.165 225.49 334.59 277.5 351C372.283 380.905 376.118 109.078 281.5 139.5C228.591 156.512 354.174 205.041 302.5 225.501Z" fill="#8B89FF"/>
<ellipse cx="137" cy="195" rx="50" ry="29" fill="#F0F0F0"/>
<circle cx="157.497" cy="195.497" r="17.2865" transform="rotate(0.701177 157.497 195.497)" fill="#535353"/>
</svg>
