<svg width="500" height="500" viewBox="0 0 500 500" fill="none" xmlns="http://www.w3.org/2000/svg">
<g clip-path="url(#clip0_16_192)">
<path d="M493.5 177.574C489.1 171.174 451.333 273.24 433 325.074L397 452.074L516.5 518.074L477.5 445.574L565 415.574L529 373.574L574 314.074L516.5 290.074C510.667 255.24 497.9 183.974 493.5 177.574Z" fill="#ED2121"/>
<path d="M458.794 279.727C456.432 276.309 436.162 330.819 426.322 358.501L407 426.326L471.138 461.574L450.206 422.855L497.169 406.833L477.847 384.403L502 352.626L471.138 339.809C468.008 321.206 461.155 283.145 458.794 279.727Z" fill="#EDE521"/>
<circle cx="226" cy="358.574" r="123" fill="#8B89FF"/>
<path d="M388.5 334.075C307.957 365.966 223 236.076 223 236.076V479.576C223 479.576 306.456 342.36 388.5 374.075C439.369 393.739 311.49 443.164 363.5 459.574C458.283 489.479 462.118 217.652 367.5 248.074C314.591 265.085 440.174 313.614 388.5 334.075Z" fill="#8B89FF"/>
<ellipse cx="223" cy="303.574" rx="50" ry="29" fill="#F0F0F0"/>
<circle cx="243.497" cy="304.07" r="17.2865" transform="rotate(0.701177 243.497 304.07)" fill="#535353"/>
</g>
<defs>
<clipPath id="clip0_16_192">
<rect width="500" height="500" fill="white" transform="matrix(-1 0 0 1 500 0)"/>
</clipPath>
</defs>
</svg>
