<svg width="500" height="500" viewBox="0 0 500 500" fill="none" xmlns="http://www.w3.org/2000/svg">
<path d="M426.5 301C419.3 401 316.5 438.333 266 444.5C194.4 444.5 145.833 395.833 130.5 371.5C116.9 335.1 88.5 305.667 76 295.5C90 295.5 114.833 312.833 125.5 321.5C110.3 295.5 119.167 243.333 125.5 220.5C127.9 244.5 146.5 262.167 155.5 268C147.9 236.8 170.667 175 183 148C175.8 185.6 191.667 207 200.5 213C192.9 142.6 259.667 80.3333 294 58C287.333 69.8333 273.8 98 273 116C272 138.5 293 154 307.5 176.5C319.1 194.5 327.667 238.333 330.5 258C375.3 237.6 379.167 195.167 375.5 176.5C400.7 222.9 383.667 275.167 372 295.5C390.4 291.1 407.667 257.333 414 241C424.8 277.4 397.833 323.5 383 342C413 332 424.5 310.5 426.5 301Z" fill="#E95425"/>
<path d="M213.5 287C216.7 235.8 256.167 200.667 275.5 189.5C257.5 218.3 260.333 237.167 264 243C292.8 268.2 297.333 303.5 296 318C324.8 311.6 328 280.667 326 266C340 299.6 330.5 330 324 341C335.2 340.6 346 317.833 350 306.5C357.6 332.5 340.833 360.667 331.5 371.5C345.5 371.5 355 355.5 358 347.5C361.5 395 300.5 435.5 252 437C203.5 438.5 162 385 158 371.5C154.8 360.7 141 348.667 134.5 344C144.5 341.2 158.667 350.833 164.5 356C157.7 340 163.333 308 167 294C169.4 309.2 180 320 185 323.5C181.4 304.3 195.167 267.167 202.5 251C200.9 271.4 209.167 283.5 213.5 287Z" fill="#FF8E29"/>
<path d="M314 379C315.6 415 273.333 429 252 431.5C226.8 431.5 211.167 413.833 206.5 405C203.7 395 191.667 382.167 186 377C194.4 376.6 201.167 381.5 203.5 384C198.3 376.4 201.333 356.833 203.5 348C205.1 356.8 211.5 362.667 214.5 364.5C212.5 354.1 220.333 332.167 224.5 322.5C223.7 339.3 228.167 343.5 230.5 343.5C236.9 309.5 256.833 293.333 266 289.5C258.4 295.1 258.833 311.167 260 318.5C272.8 330.5 280 352.167 282 361.5C290 361.9 295.667 343.667 297.5 334.5C304.3 346.5 299.667 367.167 296.5 376C300.5 375.6 307.167 363.5 310 357.5C315.6 368.3 305.667 384.667 300 391.5C308 393.9 312.667 384.167 314 379Z" fill="#FFE234"/>
</svg>
