<svg width="500" height="500" viewBox="0 0 500 500" fill="none" xmlns="http://www.w3.org/2000/svg">
<path d="M450.5 5.79544C438.408 5.75891 421.75 17.2954 421.75 17.2954C421.75 17.2954 405.728 6.04367 394 5.79544C381.638 5.5338 364.5 17.2954 364.5 17.2954C364.5 17.2954 347.362 5.5338 335 5.79544C323.272 6.04367 307.25 17.2954 307.25 17.2954C307.25 17.2954 288.649 4.79202 275.5 5.79544C264.607 6.62666 250 17.2954 250 17.2954C250 17.2954 232.216 5.21704 219.5 5.79544C208.141 6.31211 192.75 17.2954 192.75 17.2954L167.5 5.79544C157.639 1.30441 135.5 17.2954 135.5 17.2954C135.5 17.2954 118.683 5.68501 106.5 5.79544C94.5891 5.90341 78.25 17.2954 78.25 17.2954C78.25 17.2954 60.9513 5.45644 48.5 5.79544C36.8637 6.11225 21 17.2954 21 17.2954L32.5 44.2954H470.5L479 17.2954C479 17.2954 462.502 5.8317 450.5 5.79544Z" fill="#91ED9A" stroke="#59935E" stroke-width="5"/>
<path d="M491.5 449.5C491.536 437.408 480 420.75 480 420.75C480 420.75 491.252 404.728 491.5 393C491.762 380.638 480 363.5 480 363.5C480 363.5 491.762 346.362 491.5 334C491.252 322.272 480 306.25 480 306.25C480 306.25 492.503 287.649 491.5 274.5C490.669 263.607 480 249 480 249C480 249 492.078 231.216 491.5 218.5C490.983 207.141 480 191.75 480 191.75L491.5 166.5C495.991 156.639 480 134.5 480 134.5C480 134.5 491.61 117.683 491.5 105.5C491.392 93.5891 480 77.25 480 77.25C480 77.25 491.839 59.9513 491.5 47.5C491.183 35.8637 480 20 480 20L453 31.5L453 469.5L480 478C480 478 491.464 461.502 491.5 449.5Z" fill="#91ED9A" stroke="#59935E" stroke-width="5"/>
<path d="M49.5 490.5C61.5924 490.536 78.25 479 78.25 479C78.25 479 94.2719 490.252 106 490.5C118.362 490.762 135.5 479 135.5 479C135.5 479 152.638 490.762 165 490.5C176.728 490.252 192.75 479 192.75 479C192.75 479 211.351 491.503 224.5 490.5C235.393 489.669 250 479 250 479C250 479 267.784 491.078 280.5 490.5C291.859 489.983 307.25 479 307.25 479L332.5 490.5C342.361 494.991 364.5 479 364.5 479C364.5 479 381.317 490.61 393.5 490.5C405.411 490.392 421.75 479 421.75 479C421.75 479 439.049 490.839 451.5 490.5C463.136 490.183 479 479 479 479L467.5 452L29.5 452L21 479C21 479 37.4982 490.464 49.5 490.5Z" fill="#91ED9A" stroke="#59935E" stroke-width="5"/>
<path d="M7.79545 48.5C7.75892 60.5924 19.2955 77.25 19.2955 77.25C19.2955 77.25 8.04368 93.2719 7.79546 105C7.53382 117.362 19.2955 134.5 19.2955 134.5C19.2955 134.5 7.53382 151.638 7.79546 164C8.04368 175.728 19.2955 191.75 19.2955 191.75C19.2955 191.75 6.79204 210.351 7.79546 223.5C8.62668 234.393 19.2955 249 19.2955 249C19.2955 249 7.21707 266.784 7.79546 279.5C8.31213 290.859 19.2955 306.25 19.2955 306.25L7.79547 331.5C3.30444 341.361 19.2955 363.5 19.2955 363.5C19.2955 363.5 7.68504 380.317 7.79547 392.5C7.90344 404.411 19.2955 420.75 19.2955 420.75C19.2955 420.75 7.45647 438.049 7.79547 450.5C8.11228 462.136 19.2955 478 19.2955 478L46.2954 466.5L46.2954 28.5L19.2955 20C19.2955 20 7.83171 36.4982 7.79545 48.5Z" fill="#91ED9A" stroke="#59935E" stroke-width="5"/>
<rect x="20" y="20" width="459" height="459" fill="#91ED9A"/>
<path d="M355.044 384H157.477C157.477 384 50.7517 280.057 87.8224 231.078C121.969 185.962 189.984 287.207 189.984 287.207C189.984 287.207 196.182 104.946 249.929 116.53C300.521 127.433 287.079 287.207 287.079 287.207C287.079 287.207 434.781 159.951 418.789 231.078C402.798 302.205 371.036 312.873 355.044 384Z" stroke="#59935E" stroke-width="37" stroke-linejoin="round"/>
</svg>
