<svg width="500" height="500" viewBox="0 0 500 500" fill="none" xmlns="http://www.w3.org/2000/svg">
<path d="M450.5 5.79544C438.408 5.75891 421.75 17.2954 421.75 17.2954C421.75 17.2954 405.728 6.04367 394 5.79544C381.638 5.5338 364.5 17.2954 364.5 17.2954C364.5 17.2954 347.362 5.5338 335 5.79544C323.272 6.04367 307.25 17.2954 307.25 17.2954C307.25 17.2954 288.649 4.79202 275.5 5.79544C264.607 6.62666 250 17.2954 250 17.2954C250 17.2954 232.216 5.21704 219.5 5.79544C208.141 6.31211 192.75 17.2954 192.75 17.2954L167.5 5.79544C157.639 1.30441 135.5 17.2954 135.5 17.2954C135.5 17.2954 118.683 5.68501 106.5 5.79544C94.5891 5.90341 78.25 17.2954 78.25 17.2954C78.25 17.2954 60.9513 5.45644 48.5 5.79544C36.8637 6.11225 21 17.2954 21 17.2954L32.5 44.2954H470.5L479 17.2954C479 17.2954 462.502 5.8317 450.5 5.79544Z" fill="#91ED9A" stroke="#59935E" stroke-width="5"/>
<path d="M491.5 449.5C491.536 437.408 480 420.75 480 420.75C480 420.75 491.252 404.728 491.5 393C491.762 380.638 480 363.5 480 363.5C480 363.5 491.762 346.362 491.5 334C491.252 322.272 480 306.25 480 306.25C480 306.25 492.503 287.649 491.5 274.5C490.669 263.607 480 249 480 249C480 249 492.078 231.216 491.5 218.5C490.983 207.141 480 191.75 480 191.75L491.5 166.5C495.991 156.639 480 134.5 480 134.5C480 134.5 491.61 117.683 491.5 105.5C491.392 93.5891 480 77.25 480 77.25C480 77.25 491.839 59.9513 491.5 47.5C491.183 35.8637 480 20 480 20L453 31.5L453 469.5L480 478C480 478 491.464 461.502 491.5 449.5Z" fill="#91ED9A" stroke="#59935E" stroke-width="5"/>
<path d="M49.5 490.5C61.5924 490.536 78.25 479 78.25 479C78.25 479 94.2719 490.252 106 490.5C118.362 490.762 135.5 479 135.5 479C135.5 479 152.638 490.762 165 490.5C176.728 490.252 192.75 479 192.75 479C192.75 479 211.351 491.503 224.5 490.5C235.393 489.669 250 479 250 479C250 479 267.784 491.078 280.5 490.5C291.859 489.983 307.25 479 307.25 479L332.5 490.5C342.361 494.991 364.5 479 364.5 479C364.5 479 381.317 490.61 393.5 490.5C405.411 490.392 421.75 479 421.75 479C421.75 479 439.049 490.839 451.5 490.5C463.136 490.183 479 479 479 479L467.5 452L29.5 452L21 479C21 479 37.4982 490.464 49.5 490.5Z" fill="#91ED9A" stroke="#59935E" stroke-width="5"/>
<path d="M7.79545 48.5C7.75892 60.5924 19.2955 77.25 19.2955 77.25C19.2955 77.25 8.04368 93.2719 7.79546 105C7.53382 117.362 19.2955 134.5 19.2955 134.5C19.2955 134.5 7.53382 151.638 7.79546 164C8.04368 175.728 19.2955 191.75 19.2955 191.75C19.2955 191.75 6.79204 210.351 7.79546 223.5C8.62668 234.393 19.2955 249 19.2955 249C19.2955 249 7.21707 266.784 7.79546 279.5C8.31213 290.859 19.2955 306.25 19.2955 306.25L7.79547 331.5C3.30444 341.361 19.2955 363.5 19.2955 363.5C19.2955 363.5 7.68504 380.317 7.79547 392.5C7.90344 404.411 19.2955 420.75 19.2955 420.75C19.2955 420.75 7.45647 438.049 7.79547 450.5C8.11228 462.136 19.2955 478 19.2955 478L46.2954 466.5L46.2954 28.5L19.2955 20C19.2955 20 7.83171 36.4982 7.79545 48.5Z" fill="#91ED9A" stroke="#59935E" stroke-width="5"/>
<rect x="20" y="20" width="459" height="459" fill="#91ED9A"/>
<path d="M375.04 115.313C349.384 123.89 392.54 157.313 401.54 179.313L462.04 173.813C462.04 173.813 479.75 105.599 459.04 115.313C443.105 122.788 444.04 157.813 444.04 157.813C444.04 157.813 441.908 103.786 424.04 111.813C408.479 118.804 420.04 155.313 420.04 155.313C405.207 142.647 397.339 107.858 375.04 115.313Z" stroke="#59935E" stroke-width="10"/>
<path d="M136.04 401.313C110.384 409.89 153.54 443.313 162.54 465.313L223.04 459.813C223.04 459.813 240.75 391.599 220.04 401.313C204.105 408.788 205.04 443.813 205.04 443.813C205.04 443.813 202.908 389.786 185.04 397.813C169.479 404.804 181.04 441.313 181.04 441.313C166.207 428.647 158.339 393.858 136.04 401.313Z" stroke="#59935E" stroke-width="10"/>
<path d="M384.771 397.621C364.324 390.118 379.271 453.121 379.271 453.121L445.771 463.121C445.771 463.121 475.861 406.85 453.771 407.121C445.54 407.222 434.271 415.121 434.271 415.121C434.271 415.121 426.332 401.164 417.771 400.621C409.817 400.115 400.271 411.121 400.271 411.121C400.271 411.121 392.307 400.386 384.771 397.621Z" stroke="#59935E" stroke-width="10"/>
<path d="M98.4329 342.128C98.4329 325.295 79.4589 295.611 98.4329 293.128C117.06 290.691 109.766 323.628 115.433 338.128C115.433 338.128 120.502 288.445 134.933 298.128C147.435 306.517 132.933 336.628 132.933 336.628C132.933 336.628 142.394 295.412 158.933 300.628C175.944 305.994 154.933 346.128 154.933 346.128L98.4329 342.128Z" stroke="#59935E" stroke-width="10"/>
<path d="M104.821 50.0561C96.139 61.3357 121.321 82.5561 121.321 82.5561H178.321V63.5561C191.921 51.9561 236.321 55.7227 256.821 59.0561C234.821 40.2561 192.321 49.2227 173.821 56.0561C173.821 56.0561 172.188 26.5355 158.821 25.0561C145.895 23.6254 136.821 50.0561 136.821 50.0561C136.821 50.0561 112.443 40.1531 104.821 50.0561Z" stroke="#59935E" stroke-width="10"/>
<path d="M238.209 269.961C238.209 269.961 211.435 235.058 226.709 231.461C237.937 228.817 251.209 247.961 251.209 247.961C251.209 247.961 255.169 211.425 268.209 216.461C279.776 220.929 272.209 247.961 272.209 247.961C272.209 247.961 301.842 199.934 313.709 216.461C322.74 229.041 304.209 254.961 304.209 254.961C304.209 254.961 325.547 216.714 339.209 227.461C350.258 236.154 339.209 263.461 339.209 263.461C339.209 263.461 362.204 222.719 380.709 231.461C401.091 241.091 366.709 287.461 366.709 287.461L238.209 269.961Z" stroke="#59935E" stroke-width="10"/>
<circle cx="26.5" cy="473.5" r="10.5" fill="#59935E"/>
<circle cx="26.5" cy="27.5" r="10.5" fill="#59935E"/>
<circle cx="472.5" cy="27.5" r="10.5" fill="#59935E"/>
<circle cx="232.5" cy="121.5" r="10.5" fill="#59935E"/>
<circle cx="432.5" cy="292.5" r="10.5" fill="#59935E"/>
<circle cx="253.5" cy="356.5" r="10.5" fill="#59935E"/>
<circle cx="327.5" cy="447.5" r="10.5" fill="#59935E"/>
<circle cx="59.5" cy="185.5" r="10.5" fill="#59935E"/>
<circle cx="100.5" cy="121.5" r="10.5" fill="#59935E"/>
<circle cx="80.5" cy="407.5" r="10.5" fill="#59935E"/>
<circle cx="363.5" cy="68.5" r="10.5" fill="#59935E"/>
<circle cx="472.5" cy="473.5" r="10.5" fill="#59935E"/>
</svg>
