<svg width="500" height="500" viewBox="0 0 500 500" fill="none" xmlns="http://www.w3.org/2000/svg">
<path d="M351 327L248 282L232.5 306L217.5 366L248 449L275 491L448.5 470.5L466.5 409.5L476.5 334.5L458 282H419L351 327Z" fill="#686868" stroke="black" stroke-width="9" stroke-linejoin="bevel"/>
<path d="M419 282L351 327L377.5 451.5L396.5 476.5L448.5 470.5L466.5 409.5L476.5 334.5L458 282H419Z" fill="#262626" stroke="black" stroke-width="9" stroke-linejoin="bevel"/>
<path d="M239 242.5L199.5 233.5L152.35 254L168 283L206 296L254.5 293L306 317.5L343 333.5L383 327L403 300L459 280L407.5 242.5C395.667 239.5 371.1 233.5 367.5 233.5C363.9 233.5 353.667 227.833 349 225H315L239 242.5Z" fill="#9B9B9B" stroke="black" stroke-width="9" stroke-linejoin="bevel"/>
<path d="M191.5 491.5H275L262.5 448.5L275 392L254.5 293L206 296L168 283L152.35 254L132 264.5L103 308L128.5 339L152.35 384L172 448.5L191.5 491.5Z" fill="#BFBFBF" stroke="black" stroke-width="9" stroke-linejoin="bevel"/>
<path d="M128.5 339L103 308L47 326L26.5 345.5L23 374L26.5 436L53 444.5L113 461L191.5 491.5L172 448.5L152.35 384L128.5 339Z" fill="#E4E4E4" stroke="black" stroke-width="9" stroke-linejoin="bevel"/>
<path d="M89.5 336C89.5 345.389 65.664 368 54.3421 368C43.0203 368 43.852 366.5 43.852 362C43.852 352.611 67.688 330 79.0098 330C90.3317 330 89.5 331.5 89.5 336Z" fill="white"/>
</svg>
