<svg width="500" height="500" viewBox="0 0 500 500" fill="none" xmlns="http://www.w3.org/2000/svg">
<path d="M288.871 160.02L312.235 114.758L329.973 117.513C337.903 120.962 356.961 129.137 369.754 134.247C382.546 139.357 408.803 178.434 420.332 197.334L436.083 242.836L442 291.039L398.994 249.972L364.352 220.844L346.442 208.577L288.871 160.02Z" fill="#A4571F"/>
<path d="M354.247 148.878L362.554 138.766L326.155 127.307L299.698 164.266L333.483 195.459L342.28 199.348L368.13 217.569L397.432 242.062L437.304 281.346L429.312 246.323L414.841 204.74L381.211 154.489L361.044 159.926L369.21 147.819L354.247 148.878Z" fill="#904A03"/>
<path d="M221.19 194.465C227.779 192.782 271.265 211.483 292.184 221.044L302.635 216.917L332.245 118.101L323.076 93.973L229.272 94.319L194.74 98.7692L176.664 107.151L143.242 126.162L103.126 160.088L77.812 195.393L43.8155 258.264C187.701 183.744 212.955 196.569 221.19 194.465Z" fill="#A4571F"/>
<path d="M87.3321 196.179L54.2174 247.411L134.083 211.041L179.45 193.987L202.712 188.318L218.685 187.273L255.739 197.448L292.6 211.861L296.293 208.489L322.051 116.577L203.571 106.956L207.474 122.351L191.547 114.551L196.397 132.466L173.727 117.281L113.256 163.025L87.3321 196.179Z" fill="#904A03"/>
<path d="M171.5 237C182.7 239.8 195.5 233.5 200.5 230C214.333 225.167 238.8 219.2 226 234C213.2 248.8 196 252.833 189 253L169.5 247C162.3 259.8 150.833 258 146 255.5V246.5C155.6 250.1 159.667 244 160.5 240.5L154.5 230L142 220.5L148.5 218L157.5 218.5L171.5 237Z" fill="#8E4A16"/>
<path d="M142 245C158 244.6 168 229.167 171 221.5C189.833 213.833 221.7 204.5 198.5 228.5C175.3 252.5 153.833 256.833 146 256C144 264 137.5 270 134.5 272H123.5L112 265L126.5 263L133.5 254.5L126.5 246L111 239.5C114.667 237.5 122.5 233.5 124.5 233.5C126.5 233.5 137 241.167 142 245Z" fill="#A4571F"/>
<path d="M406.5 156.5L429.5 188.5L422.5 184.5L398 154.5L399 147.5L406.5 156.5Z" fill="#E54E7D"/>
<path d="M452.5 141.5C462.5 153.1 474.333 186 479 201C427.5 139 399 141.5 397 143.5C395.4 145.1 399 150.833 401 153.5L430.5 190.5L461.5 216.5L359.5 166L342 130L321.5 69.5L300.5 48L256.5 8L329.5 35.5L367 60.5L425.5 104.5L436.5 119L452.5 141.5Z" fill="#BD6E35"/>
<circle cx="12" cy="12" r="12" transform="matrix(-1 0 0 1 411.5 100)" fill="white"/>
<circle cx="5" cy="5" r="5" transform="matrix(-1 0 0 1 407.5 111)" fill="#56331A"/>
<path d="M302.5 162L341 129C351 132.5 368.8 144.7 360 165.5C351.2 186.3 312.667 212.833 294.5 223.5C282.333 228.833 251.9 238.6 227.5 235C203.1 231.4 178.667 224.167 169.5 221L141.5 208L216 198.5L274 181.5L302.5 162Z" fill="#BD6E35"/>
<path d="M319 124L331 93.5H334.5L345.5 131.5L283 184L212.5 201.5L142 208L174.5 190L221.5 174.5L229 177.5L319 124Z" fill="#A4571F"/>
</svg>
