<svg width="500" height="500" viewBox="0 0 500 500" fill="none" xmlns="http://www.w3.org/2000/svg">
<path d="M288.871 160.02L312.235 114.758L329.973 117.513C337.903 120.962 356.961 129.137 369.754 134.247C382.546 139.357 408.803 178.434 420.332 197.334L436.083 242.836L442 291.039L398.994 249.972L364.352 220.844L346.442 208.577L288.871 160.02Z" fill="#A4571F"/>
<path d="M354.248 148.878L362.555 138.766L326.155 127.307L299.698 164.266L333.483 195.459L342.28 199.348L368.13 217.569L397.432 242.062L437.304 281.346L429.312 246.323L414.841 204.74L381.211 154.489L361.044 159.926L369.21 147.819L354.248 148.878Z" fill="#904A03"/>
<path d="M221.19 194.465C227.779 192.782 271.265 211.483 292.184 221.044L302.635 216.917L332.245 118.101L323.076 93.973L229.272 94.319L194.74 98.7692L176.664 107.151L143.242 126.162L103.126 160.088L77.8119 195.393L43.8154 258.264C187.701 183.744 212.955 196.569 221.19 194.465Z" fill="#A4571F"/>
<path d="M87.332 196.179L54.2174 247.411L134.083 211.041L179.45 193.987L202.712 188.318L218.685 187.273L255.739 197.448L292.6 211.861L296.292 208.489L322.051 116.577L203.571 106.956L207.473 122.351L191.547 114.551L196.397 132.466L173.727 117.281L113.256 163.025L87.332 196.179Z" fill="#904A03"/>
<path d="M243.478 279.543C235.288 271.407 234.057 257.194 234.466 251.105C231.445 236.766 223.894 212.741 217.85 231.352C211.807 249.962 217.254 266.768 220.732 272.845L235.955 286.428C228.726 299.212 236.199 308.094 240.839 310.937L248.541 306.281C240.494 299.928 243.61 293.292 246.174 290.768L258.264 290.47L272.861 296.253L271.637 289.397L266.553 281.953L243.478 279.543Z" fill="#8E4A16"/>
<path d="M278.14 266.372C277.291 250.39 261.583 240.827 253.835 238.043C245.642 219.433 235.418 187.841 260.06 210.358C284.702 232.874 289.636 254.211 289.023 262.065C297.076 263.839 303.257 270.168 305.34 273.111L305.649 284.106L298.975 295.798L296.568 281.36L287.875 274.602L279.575 281.838L273.513 297.514C271.411 293.905 267.192 286.187 267.136 284.188C267.08 282.189 274.449 271.478 278.14 266.372Z" fill="#A4571F"/>
<path d="M406.5 156.5L429.5 188.5L422.5 184.5L398 154.5L399 147.5L406.5 156.5Z" fill="#E54E7D"/>
<path d="M452.5 141.5C462.5 153.1 474.333 186 479 201C427.5 139 399 141.5 397 143.5C395.4 145.1 399 150.833 401 153.5L430.5 190.5L461.5 216.5L359.5 166L342 130L321.5 69.5L300.5 48L256.5 8L329.5 35.5L367 60.5L425.5 104.5L436.5 119L452.5 141.5Z" fill="#BD6E35"/>
<circle cx="12" cy="12" r="12" transform="matrix(-1 0 0 1 411.5 100)" fill="white"/>
<circle cx="5" cy="5" r="5" transform="matrix(-1 0 0 1 407.5 111)" fill="#56331A"/>
<path d="M302.5 162L341 129C351 132.5 368.8 144.7 360 165.5C351.2 186.3 312.667 212.833 294.5 223.5C282.333 228.833 251.9 238.6 227.5 235C203.1 231.4 178.667 224.167 169.5 221L141.5 208L216 198.5L274 181.5L302.5 162Z" fill="#BD6E35"/>
<path d="M319 124L331 93.5H334.5L345.5 131.5L283 184L212.5 201.5L142 208L174.5 190L221.5 174.5L229 177.5L319 124Z" fill="#A4571F"/>
</svg>
