<svg width="500" height="500" viewBox="0 0 500 500" fill="none" xmlns="http://www.w3.org/2000/svg">
<path d="M332.5 239L376 212.5L372 195C368 187.333 358.5 168.9 352.5 156.5C346.5 144.1 305.667 120.667 286 110.5L239.5 98L191 95.5L235 135.5L266.5 168L280 185L332.5 239Z" fill="#A4571F"/>
<path d="M339 173L348.5 164L362.5 199.5L327.5 228.5L294 197L289.5 188.5L269.5 164L243 136.5L201 99.5L236.5 105L279 116.5L331.5 146.5L327.5 167L339 158V173Z" fill="#904A03"/>
<path d="M190.5 240C196.5 243.2 216 286.333 225 307.5L235.5 311.5L324 258.5L333.5 234.5L264 171.5L235.5 151.5L216.5 145.5L179 137L126.5 135L84 144L16.5 167.5C173 209.5 183 236 190.5 240Z" fill="#A4571F"/>
<path d="M90.5 151L31.5 166.5L115 193.5L160 211.5L181 223L193.5 233L214 265.5L231.5 301H236.5L317.5 250.5L236.5 163.5L229 177.5L222.5 161L214 177.5L207.5 151L132 144L90.5 151Z" fill="#904A03"/>
<path d="M241.179 422.564C236.35 412.097 239.907 398.357 242.289 392.795C244.246 378.315 245.241 353.189 233.565 368.52C221.889 383.851 221.344 401.485 222.53 408.385L232.011 426.399C221.169 435.86 225.093 446.776 228.411 451.051L237.007 449.366C231.723 440.619 236.768 435.487 239.951 434.014L251.134 437.937L262.612 448.426L263.75 441.579L261.542 432.84L241.179 422.564Z" fill="#8E4A16"/>
<path d="M316.161 410.313C311.809 394.911 294.379 389.047 286.208 388.04C274.114 371.694 257.176 343.133 286.176 359.663C315.176 376.194 324.693 395.917 325.827 403.713C334.073 403.668 341.496 408.479 344.177 410.89L346.903 421.547L342.971 434.423L337.44 420.87L327.471 416.195L320.97 425.082L318.513 441.71C315.667 438.653 309.851 432.055 309.356 430.117C308.86 428.18 313.686 416.107 316.161 410.313Z" fill="#A4571F"/>
<path d="M307 295L345.5 262C355.5 265.5 373.3 277.7 364.5 298.5C355.7 319.3 317.167 345.833 299 356.5C286.833 361.833 256.4 371.6 232 368C207.6 364.4 183.167 357.167 174 354L146 341L220.5 331.5L278.5 314.5L307 295Z" fill="#BD6E35"/>
<path d="M323.5 257L335.5 226.5H339L350 264.5L287.5 317L217 334.5L146.5 341L179 323L226 307.5L233.5 310.5L323.5 257Z" fill="#A4571F"/>
<path d="M411 289.5L434 321.5L427 317.5L402.5 287.5L403.5 280.5L411 289.5Z" fill="#E54E7D"/>
<path d="M457 274.5C467 286.1 478.833 319 483.5 334C432 272 403.5 274.5 401.5 276.5C399.9 278.1 403.5 283.833 405.5 286.5L435 323.5L466 349.5L364 299L346.5 263L326 202.5L305 181L261 141L334 168.5L371.5 193.5L430 237.5L441 252L457 274.5Z" fill="#BD6E35"/>
<circle cx="12" cy="12" r="12" transform="matrix(-1 0 0 1 416 233)" fill="white"/>
<circle cx="5" cy="5" r="5" transform="matrix(-1 0 0 1 412 244)" fill="#56331A"/>
</svg>
